<svg version="1.1"
    xmlns="http://www.w3.org/2000/svg"
    xmlns:xlink="http://www.w3.org/1999/xlink" width="512" height="512" viewBox="0 0 512 512">
    <title>download icon</title>
    <desc>download icon from the IconExperience.com G-Collection. Copyright by INCORS GmbH (www.incors.com).</desc>
    <defs>
        <radialGradient cx="190.56897" cy="153.43738" r="345.36459" fx="190.56897" fy="153.43738" gradientUnits="userSpaceOnUse" id="color-1">
            <stop offset="0" stop-color="#98e957"/>
            <stop offset="0.41177" stop-color="#77da26"/>
            <stop offset="1" stop-color="#3b6d13"/>
        </radialGradient>
        <radialGradient cx="185.45149" cy="150.02964" r="358.93492" fx="185.45149" fy="150.02964" gradientUnits="userSpaceOnUse" id="color-2">
            <stop offset="0" stop-color="#4eb6f2"/>
            <stop offset="0.2" stop-color="#43abe7"/>
            <stop offset="1" stop-color="#0e76b2"/>
        </radialGradient>
        <linearGradient x1="128" y1="272" x2="201.9315" y2="456.8265" gradientUnits="userSpaceOnUse" id="color-3">
            <stop offset="0" stop-color="#baf68a"/>
            <stop offset="0.38039" stop-color="#89e241"/>
            <stop offset="1" stop-color="#72c430"/>
        </linearGradient>
    </defs>
    <g fill="none" fill-rule="evenodd" stroke="none" stroke-width="1" stroke-linecap="butt" stroke-linejoin="miter" stroke-miterlimit="10" stroke-dasharray="" stroke-dashoffset="0" font-family="none" font-weight="none" font-size="none" text-anchor="none" style="mix-blend-mode: normal">
        <path d="M256,0c106,0 192,86 192,192c0,106 -86,192 -192,192c-106,0 -192,-86 -192,-192c0,-106 86,-192 192,-192z" id="curve2" fill="url(#color-1)"/>
        <path d="M301,118c5,-2 12,-2.5 14.5,-1.5c13.5,4.5 13,18.5 26.5,20.5c1.5,0.5 8.5,-4 10,-3.5c8.5,1.5 16.5,9 23.5,5.5c4.5,-2 7,-10.5 3,-13.5c-4,-3 -9.5,-0.5 -14,-3.5c-6,-4.5 -11,1.5 -16,-4c-2,-3 -6.5,-11 -9,-15.5c-3.5,-4.5 -13,-2.5 -11.5,-0.5c5,7 12,8 13,11.5c1,4 -9,9.5 -6.5,2c1.5,-4 -6,-6 -14.5,-10.5c-4.5,-2.5 -9,-8.5 -16,-5.5c-3,1.5 -9.5,9.5 -12,13.5c-4.5,6.5 -14,4.5 -21,1.5c-6.5,-3 -6.5,-19 2,-26c8,-6.5 15,-2.5 22.5,-4.5c3.5,-1 5,-4.5 10,-8c5.5,-3.5 -3.5,-10 -0.5,-16c2.5,-5 11,-6 15.5,-8.5c4,-2 8.5,-5.5 13,-2.5c6.5,3.5 13.5,4 19.5,8c9,5.5 15.5,8.5 24,7.5c-29,-28 -68,-45.5 -110.5,-48c6,4 16.5,16.5 13.5,23c-2.5,6 -7,14 -19,18.5c-9.5,3.5 -21.5,3.5 -30.5,7.5c-9.5,4.5 -19,4 -24.5,5.5c-8.5,2 0.5,-28.5 -2,-32c-3.5,-5 -26.5,-0.5 -28.5,4.5c-4.5,12 6,22.5 5.5,25c-1,4.5 -0.5,22.5 -5,27.5c-6.5,7 -23.5,13.5 -25.5,14c-11,1.5 -13.5,12.5 -22,19c-3,2.5 -20.5,21 -23.5,26.5c-7.5,15.5 0,25 3.5,28c6,5.5 8.5,6 15,8c2.5,1 27,13.5 34,20.5c6.5,7 10,14.5 17,18.5c8.5,5 23.5,10.5 25.5,14.5c9,18 6,42.5 -20,60c-7,4.5 -20.5,12 -17.5,25c1.5,5 1.5,9 3,13c26.5,16 57.5,25 90.5,25c97,0 176,-79 176,-176c0,-8.5 -0.5,-16.5 -1.5,-24.5c-3,-3.5 -5.5,-7 -7.5,-6c-3,1 -3.5,10 -6.5,15.5c-2.5,4.5 -8.5,5 -9.5,6c-6.5,9 14.5,15.5 5.5,27.5c-4,5 -15.5,16.5 -19,31.5c-6.5,31.5 -2,12.5 -12.5,38c-1.5,3.5 -4,18 -6.5,21.5c-9.5,14.5 -37,31.5 -43.5,23c-4,-5 -6.5,-12.5 -7.5,-19.5c-1.5,-7 -8.5,-16 -8,-21.5c1,-9 2,-12 2,-22c0,0 -6,-24.5 -7,-26.5c-4.5,-9.5 -12,-14 -22,-10.5c-8.5,3 -15,-1 -21.5,-4c-12.5,-5 -18.5,-21.5 -21.5,-35.5c0,0 2,-21.5 2,-22.5c0.5,-5.5 3,-11 6,-15.5c23,-32.5 18,-18.5 47.5,-29z M154.5,336c-9.5,-11.5 -20.5,-25.5 -24,-33.5c-3.5,-9 -4.5,-25.5 -9,-30.5c-9,-10.5 -17,-19 -19,-29.5c-1.5,-9.5 -7,-24 -8,-31.5c-1.5,-10.5 -6,-22.5 -14,-31c-0.5,4 -0.5,8 -0.5,12c0,59.5 29.5,112 74.5,144z" id="curve1" fill="url(#color-2)"/>
        <path d="M208,272l96,0l0,112l80,0l-128,128l-128,-128l80,0z" id="curve0" fill="url(#color-3)"/>
    </g>
</svg>