<?xml version="1.0" encoding="UTF-8" standalone="no"?>
<!-- Created with Inkscape (http://www.inkscape.org/) -->

<svg
   width="512"
   height="512"
   viewBox="0 0 512 512"
   version="1.1"
   id="svg1"
   sodipodi:docname="DragAndDrop_POV.svg"
   inkscape:version="1.2.2 (732a01da63, 2022-12-09)"
   xmlns:inkscape="http://www.inkscape.org/namespaces/inkscape"
   xmlns:sodipodi="http://sodipodi.sourceforge.net/DTD/sodipodi-0.dtd"
   xmlns="http://www.w3.org/2000/svg"
   xmlns:svg="http://www.w3.org/2000/svg">
  <sodipodi:namedview
     id="namedview10018"
     pagecolor="#ffffff"
     bordercolor="#666666"
     borderopacity="1.0"
     inkscape:showpageshadow="2"
     inkscape:pageopacity="0.0"
     inkscape:pagecheckerboard="0"
     inkscape:deskcolor="#d1d1d1"
     showgrid="false"
     inkscape:zoom="1.9570312"
     inkscape:cx="237.86028"
     inkscape:cy="256"
     inkscape:window-width="2560"
     inkscape:window-height="1369"
     inkscape:window-x="1912"
     inkscape:window-y="-8"
     inkscape:window-maximized="1"
     inkscape:current-layer="svg1" />
  <defs
     id="defs1" />
  <path
     style="fill:#000000;fill-opacity:0.1;fill-rule:evenodd;stroke:none;stroke-width:0.999995"
     d="m 100.00752,0 h 312.0133 C 467.01362,0 512,45.014731 512,100.00752 V 412.02081 C 512,467.01362 467.01362,512 412.02081,512 H 100.00752 C 45.014726,512 0,467.01362 0,412.02081 V 100.00752 C 0,45.014731 45.014726,0 100.00752,0 Z"
     id="path1" />
  <path
     style="fill:#42c765;fill-opacity:1;fill-rule:evenodd;stroke:none;stroke-width:0.999995"
     d="m 384.01416,0 h 28.00666 C 467.09866,0 512,44.929688 512,100.00752 V 412.02081 C 512,467.09866 467.09866,512 412.02081,512 H 384.01416 V 426.67612 H 255.99999 V 341.35223 H 128.01417 V 170.67612 H 255.99999 V 85.323885 h 128.01417 z"
     id="path2" />
  <path
     style="fill:#000000;fill-opacity:1;fill-rule:evenodd;stroke:none;stroke-width:1"
     d="m 0,192 h 11.9907 v 56.91408 H 384.01417 V 192 L 512,256 384.01417,320 V 263.08592 H 11.9907 V 320 H 0 Z"
     id="path1577" />
</svg>
