<svg version="1.1"
    xmlns="http://www.w3.org/2000/svg"
    xmlns:xlink="http://www.w3.org/1999/xlink" width="512" height="512" viewBox="0 0 512 512">
    <title>toolbox icon</title>
    <desc>toolbox icon from the IconExperience.com G-Collection. Copyright by INCORS GmbH (www.incors.com).</desc>
    <defs>
        <linearGradient x1="0" y1="304" x2="0" y2="160.0005" gradientUnits="userSpaceOnUse" id="color-1">
            <stop offset="0" stop-color="#a11a10"/>
            <stop offset="0.52941" stop-color="#91180f"/>
            <stop offset="1" stop-color="#81160e"/>
        </linearGradient>
        <linearGradient x1="0" y1="128" x2="0" y2="176" gradientUnits="userSpaceOnUse" id="color-2">
            <stop offset="0" stop-color="#e24f44"/>
            <stop offset="0.58039" stop-color="#cf3c31"/>
            <stop offset="1" stop-color="#bc291e"/>
        </linearGradient>
        <linearGradient x1="180.55" y1="79.99107" x2="292.5495" y2="175.99107" gradientUnits="userSpaceOnUse" id="color-3">
            <stop offset="0" stop-color="#d8e0e8"/>
            <stop offset="1" stop-color="#b3c0cd"/>
        </linearGradient>
        <linearGradient x1="276.5" y1="272" x2="337.8835" y2="287.9995" gradientUnits="userSpaceOnUse" id="color-4">
            <stop offset="0" stop-color="#c7d1db"/>
            <stop offset="1" stop-color="#b8c4cf"/>
        </linearGradient>
        <linearGradient x1="339.5" y1="199.5" x2="409.0355" y2="238.4725" gradientUnits="userSpaceOnUse" id="color-5">
            <stop offset="0" stop-color="#bac5d0"/>
            <stop offset="1" stop-color="#9fadba"/>
        </linearGradient>
        <linearGradient x1="0" y1="288" x2="29.09115" y2="480.0005" gradientUnits="userSpaceOnUse" id="color-6">
            <stop offset="0" stop-color="#e24f44"/>
            <stop offset="1" stop-color="#cb382d"/>
        </linearGradient>
        <linearGradient x1="0" y1="464" x2="2.64036" y2="480" gradientUnits="userSpaceOnUse" id="color-7">
            <stop offset="0" stop-color="#b72419"/>
            <stop offset="1" stop-color="#b52217"/>
        </linearGradient>
    </defs>
    <g fill="none" fill-rule="evenodd" stroke="none" stroke-width="1" stroke-linecap="butt" stroke-linejoin="miter" stroke-miterlimit="10" stroke-dasharray="" stroke-dashoffset="0" font-family="none" font-weight="none" font-size="none" text-anchor="none" style="mix-blend-mode: normal">
        <path d="M192,80l128,0l32,32l-192,0z" id="curve11" fill="#51616f"/>
        <path d="M320,80l32,32l0,48l-32,0z M160,112l32,-32l0,80l-32,0z" id="curve10" fill="#717f8f"/>
        <path d="M512,304l-512,0l0,-144l512,0z" id="curve9" fill="url(#color-1)"/>
        <path d="M16,128l480,0c9,0 16,7 16,16l0,32l-512,0l0,-32c0,-9 7,-16 16,-16z" id="curve8" fill="url(#color-2)"/>
        <path d="M510.5,162.5c4,22 -0.5,44 -14,62c-19.5,25 -53,34 -85.5,26c-4.5,-1 -9.5,1 -12,5l-134,190c-15,21.5 -45.5,24.5 -66,8.5c-20.5,-16 -25,-46.5 -8,-66l151,-176.5c3.5,-4 4,-9 1.5,-13.5c-15.5,-29 -15,-63.5 5,-89c22,-28.5 61.5,-36 97.5,-22.5c2,1 3.5,2.5 3.5,5c0.5,2 -0.5,4 -2,5.5l-46,34.5c-5.5,4 1.5,22 15,40c14,18 29,29.5 34.5,25.5l50.5,-38c1.5,-1.5 3.5,-1.5 5.5,-1c2,1 3,2.5 3.5,4.5z M242.5,398.5c10,8 12,22.5 4,32.5c-8,10.5 -23,12.5 -33,4.5c-10.5,-8 -12,-23 -4,-33c8,-10.5 22.5,-12 33,-4z" id="curve7" fill="url(#color-3)"/>
        <path d="M387,272l-11,16l-99.5,0l13.5,-16z" id="curve6" fill="url(#color-4)"/>
        <path d="M409.5,250.5c-4.5,-0.5 -8,1.5 -10.5,5l-2.5,3l0,0c-11,-4 -22,-10 -32,-17.5c-10,-8 -18,-17 -25,-26.5l0,0l2.5,-3c3,-3.5 4,-8 2.5,-12l0,0c6.5,11.5 16,23 27.5,32c11.5,9 24.5,15.5 37.5,19z" id="curve5" fill="url(#color-5)"/>
        <path d="M0,288l512,0l0,176c0,9 -7,16 -16,16l-480,0c-9,0 -16,-7 -16,-16z" id="curve4" fill="url(#color-6)"/>
        <path d="M512,464c0,9 -7,16 -16,16l-480,0c-9,0 -16,-7 -16,-16z" id="curve3" fill="url(#color-7)"/>
        <path d="M232,160l48,0c4.5,0 8,3.5 8,8l0,32c0,4.5 -3.5,8 -8,8l-48,0c-4.5,0 -8,-3.5 -8,-8l0,-32c0,-4.5 3.5,-8 8,-8z" id="curve2" fill="#91a0af"/>
        <path d="M232,160l48,0c4.5,0 8,3.5 8,8l0,16c0,4.5 -3.5,8 -8,8l-24,0l-24,0c-4.5,0 -8,-3.5 -8,-8l0,-16c0,-4.5 3.5,-8 8,-8z" id="curve1" fill="#d8e0e8"/>
        <path d="M256,304c9,0 16,7 16,16c0,9 -7,16 -16,16c-9,0 -16,-7 -16,-16c0,-9 7,-16 16,-16z" id="curve0" fill="#d8e0e8"/>
    </g>
</svg>