<svg version="1.1"
    xmlns="http://www.w3.org/2000/svg"
    xmlns:xlink="http://www.w3.org/1999/xlink" width="512" height="512" viewBox="0 0 512 512">
    <title>eye icon</title>
    <desc>eye icon from the IconExperience.com G-Collection. Copyright by INCORS GmbH (www.incors.com).</desc>
    <defs>
        <linearGradient x1="0" y1="64" x2="400" y2="432.0005" gradientUnits="userSpaceOnUse" id="color-1">
            <stop offset="0" stop-color="#f5b673"/>
            <stop offset="0.41177" stop-color="#f5a557"/>
            <stop offset="1" stop-color="#ec923a"/>
        </linearGradient>
        <radialGradient cx="114.53347" cy="224.13389" r="413.79993" fx="114.53347" fy="224.13389" gradientUnits="userSpaceOnUse" id="color-2">
            <stop offset="0" stop-color="#ffffff"/>
            <stop offset="0.83922" stop-color="#ebeff3"/>
            <stop offset="1" stop-color="#d8e0e8"/>
        </radialGradient>
        <radialGradient cx="198.3044" cy="215.55911" r="273.16083" fx="198.3044" fy="215.55911" gradientUnits="userSpaceOnUse" id="color-3">
            <stop offset="0" stop-color="#89cff7"/>
            <stop offset="0.54118" stop-color="#129eee"/>
            <stop offset="1" stop-color="#0e76b2"/>
        </radialGradient>
        <radialGradient cx="197.59236" cy="215.5157" r="138.40357" fx="197.59236" fy="215.5157" gradientUnits="userSpaceOnUse" id="color-4">
            <stop offset="0" stop-color="#717f8f"/>
            <stop offset="0.43922" stop-color="#51616f"/>
            <stop offset="1" stop-color="#36414a"/>
        </radialGradient>
    </defs>
    <g fill="none" fill-rule="evenodd" stroke="none" stroke-width="1" stroke-linecap="butt" stroke-linejoin="miter" stroke-miterlimit="10" stroke-dasharray="" stroke-dashoffset="0" font-family="none" font-weight="none" font-size="none" text-anchor="none" style="mix-blend-mode: normal">
        <path d="M512,256c-31.5,111 -135,192 -256,192c-121,0 -224.5,-81 -256,-192c31.5,-111 135,-192 256,-192c121,0 224.5,81 256,192z" id="curve3" fill="url(#color-1)"/>
        <path d="M48,256c29,95 114,160 208,160c94,0 179,-65 208,-160c-29,-95 -114,-160 -208,-160c-94,0 -179,65 -208,160z" id="curve2" fill="url(#color-2)"/>
        <path d="M256,112c79.5,0 144,64.5 144,144c0,79.5 -64.5,144 -144,144c-79.5,0 -144,-64.5 -144,-144c0,-79.5 64.5,-144 144,-144z" id="curve1" fill="url(#color-3)"/>
        <path d="M256,208c26.5,0 48,21.5 48,48c0,26.5 -21.5,48 -48,48c-26.5,0 -48,-21.5 -48,-48c0,-26.5 21.5,-48 48,-48z" id="curve0" fill="url(#color-4)"/>
    </g>
</svg>