<?xml version="1.0" encoding="UTF-8" standalone="no"?>
<!-- Created with Inkscape (http://www.inkscape.org/) -->

<svg
   width="2150"
   height="2380"
   viewBox="0 0 2150 2380"
   version="1.1"
   id="svg1"
   inkscape:version="1.3 (0e150ed6c4, 2023-07-21)"
   sodipodi:docname="X360Controller_Buttons.svg"
   xmlns:inkscape="http://www.inkscape.org/namespaces/inkscape"
   xmlns:sodipodi="http://sodipodi.sourceforge.net/DTD/sodipodi-0.dtd"
   xmlns="http://www.w3.org/2000/svg"
   xmlns:svg="http://www.w3.org/2000/svg">
  <sodipodi:namedview
     id="namedview1"
     pagecolor="#ffffff"
     bordercolor="#666666"
     borderopacity="1.0"
     inkscape:showpageshadow="2"
     inkscape:pageopacity="0.0"
     inkscape:pagecheckerboard="0"
     inkscape:deskcolor="#d1d1d1"
     inkscape:document-units="px"
     inkscape:zoom="1.0449705"
     inkscape:cx="396.6619"
     inkscape:cy="561.25984"
     inkscape:window-width="2560"
     inkscape:window-height="1369"
     inkscape:window-x="1912"
     inkscape:window-y="-8"
     inkscape:window-maximized="1"
     inkscape:current-layer="layer1" />
  <defs
     id="defs1" />
  <g
     inkscape:label="Layer 1"
     inkscape:groupmode="layer"
     id="layer1">
    <path
       style="fill:#ff0000;fill-opacity:1;fill-rule:evenodd;stroke:none;stroke-width:0.999998"
       d="M 0,2380 H 2150 V 0 H 0 Z"
       id="path1" />
    <path
       style="fill:#66aaff;fill-opacity:1;fill-rule:evenodd;stroke:none;stroke-width:0.999998"
       d="m 1502.48,1359.0726 c 32.4851,0 58.9891,-26.5039 58.9891,-58.989 0,-32.485 -26.504,-58.989 -58.9891,-58.989 -32.5135,0 -59.0175,26.504 -59.0175,58.989 0,32.4851 26.504,58.989 59.0175,58.989 z"
       id="path2" />
    <path
       style="fill:#66aaff;fill-opacity:1;fill-rule:evenodd;stroke:none;stroke-width:0.999998"
       d="m 1655.3529,1515.2335 c 32.5134,0 59.0175,-26.504 59.0175,-59.0174 0,-32.485 -26.5041,-58.9891 -59.0175,-58.9891 -32.4852,0 -58.9892,26.5041 -58.9892,58.9891 0,32.5134 26.504,59.0174 58.9892,59.0174 z"
       id="path3" />
    <path
       style="fill:#66aaff;fill-opacity:1;fill-rule:evenodd;stroke:none;stroke-width:0.999998"
       d="m 1811.1738,1359.0726 c 32.5134,0 59.0174,-26.5039 59.0174,-58.989 0,-32.485 -26.504,-58.989 -59.0174,-58.989 -32.4851,0 -58.9891,26.504 -58.9891,58.989 0,32.4851 26.504,58.989 58.9891,58.989 z"
       id="path4" />
    <path
       style="fill:#66aaff;fill-opacity:1;fill-rule:evenodd;stroke:none;stroke-width:0.999998"
       d="m 1655.3529,1204.9528 c 32.5134,0 59.0175,-26.504 59.0175,-59.0174 0,-32.4851 -26.5041,-58.9891 -59.0175,-58.9891 -32.4852,0 -58.9892,26.504 -58.9892,58.9891 0,32.5134 26.504,59.0174 58.9892,59.0174 z"
       id="path5" />
    <path
       style="fill:#66aaff;fill-opacity:1;fill-rule:evenodd;stroke:none;stroke-width:0.999998"
       d="m 661.63658,1680.6636 c 19.53076,0 35.43317,-15.9307 35.43317,-35.4331 0,-19.5307 -15.90241,-35.4331 -35.43317,-35.4331 -19.50242,0 -35.43317,15.9024 -35.43317,35.4331 0,19.5024 15.93075,35.4331 35.43317,35.4331 z"
       id="path6" />
    <path
       style="fill:#66aaff;fill-opacity:1;fill-rule:evenodd;stroke:none;stroke-width:0.999998"
       d="m 767.93611,1786.9346 c 19.53077,0 35.43315,-15.9024 35.43315,-35.4331 0,-19.5023 -15.90238,-35.4047 -35.43315,-35.4047 -19.50243,0 -35.43318,15.9024 -35.43318,35.4047 0,19.5307 15.93075,35.4331 35.43318,35.4331 z"
       id="path7" />
    <path
       style="fill:#66aaff;fill-opacity:1;fill-rule:evenodd;stroke:none;stroke-width:0.999998"
       d="m 874.23563,1680.6636 c 19.50241,0 35.43315,-15.9307 35.43315,-35.4331 0,-19.5307 -15.93074,-35.4331 -35.43315,-35.4331 -19.53077,0 -35.43322,15.9024 -35.43322,35.4331 0,19.5024 15.90245,35.4331 35.43322,35.4331 z"
       id="path8" />
    <path
       style="fill:#66aaff;fill-opacity:1;fill-rule:evenodd;stroke:none;stroke-width:0.999998"
       d="m 767.93611,1574.3643 c 19.53077,0 35.43315,-15.9307 35.43315,-35.4331 0,-19.5308 -15.90238,-35.4332 -35.43315,-35.4332 -19.50243,0 -35.43318,15.9024 -35.43318,35.4332 0,19.5024 15.93075,35.4331 35.43318,35.4331 z"
       id="path9" />
    <path
       style="fill:#66aaff;fill-opacity:1;fill-rule:evenodd;stroke:none;stroke-width:0.999998"
       d="m 767.93611,1680.6636 c 19.53077,0 35.43315,-15.9307 35.43315,-35.4331 0,-19.5307 -15.90238,-35.4331 -35.43315,-35.4331 -19.50243,0 -35.43318,15.9024 -35.43318,35.4331 0,19.5024 15.93075,35.4331 35.43318,35.4331 z"
       id="path10" />
    <path
       style="fill:#66aaff;fill-opacity:1;fill-rule:evenodd;stroke:none;stroke-width:0.999998"
       d="m 1126.0096,1652.6006 c 16.1858,16.1859 32.3718,32.4 48.586,48.5859 3.0331,3.0615 7.37,3.9118 11.3669,2.2677 3.9685,-1.6441 6.4347,-5.3291 6.4347,-9.6378 0,-32.4 0,-64.8001 0,-97.1718 0,-4.3086 -2.4662,-7.9937 -6.4347,-9.6378 -3.9969,-1.6724 -8.3338,-0.7937 -11.3669,2.2394 -16.2142,16.2142 -32.4002,32.4001 -48.586,48.5859 -4.0819,4.0819 -4.0819,10.715 0,14.7685 z"
       id="path11" />
    <path
       style="fill:#66aaff;fill-opacity:1;fill-rule:evenodd;stroke:none;stroke-width:0.999998"
       d="m 1339.2606,1865.8513 c -16.1859,-16.1859 -32.4001,-32.3717 -48.586,-48.5859 -3.033,-3.0331 -3.9118,-7.3701 -2.2677,-11.367 1.6441,-3.9685 5.3292,-6.4346 9.6379,-6.4346 32.4,0 64.8001,0 97.1719,0 4.3086,0 7.9937,2.4661 9.6378,6.4346 1.6724,3.9969 0.7937,8.3339 -2.2394,11.367 -16.2142,16.2142 -32.4001,32.4 -48.5859,48.5859 -4.082,4.0819 -10.715,4.0819 -14.7686,0 z"
       id="path12" />
    <path
       style="fill:#66aaff;fill-opacity:1;fill-rule:evenodd;stroke:none;stroke-width:0.999998"
       d="m 1567.2801,1652.6006 c -16.1858,16.1859 -32.4,32.4 -48.5859,48.5859 -3.0614,3.0615 -7.3985,3.9118 -11.367,2.2677 -3.9968,-1.6441 -6.4346,-5.3291 -6.4346,-9.6378 0,-32.4 0,-64.8001 0,-97.1718 0,-4.3086 2.4378,-7.9937 6.4346,-9.6378 3.9685,-1.6724 8.3056,-0.7937 11.367,2.2394 16.1859,16.2142 32.4001,32.4001 48.5859,48.5859 4.0536,4.0819 4.0536,10.715 0,14.7685 z"
       id="path13" />
    <path
       style="fill:#66aaff;fill-opacity:1;fill-rule:evenodd;stroke:none;stroke-width:0.999998"
       d="m 1339.2606,1424.5814 c -16.1859,16.1858 -32.4001,32.4001 -48.586,48.5859 -3.033,3.0614 -3.9118,7.3984 -2.2677,11.3669 1.6441,3.9969 5.3292,6.4347 9.6379,6.4347 32.4,0 64.8001,0 97.1719,0 4.3086,0 7.9937,-2.4378 9.6378,-6.4347 1.6724,-3.9685 0.7937,-8.3055 -2.2394,-11.3669 -16.2142,-16.1858 -32.4001,-32.4001 -48.5859,-48.5859 -4.082,-4.0536 -10.715,-4.0536 -14.7686,0 z"
       id="path14" />
    <path
       style="fill:#66aaff;fill-opacity:1;fill-rule:evenodd;stroke:none;stroke-width:0.999998"
       d="m 1346.6307,1680.6636 c 19.5308,0 35.4332,-15.9307 35.4332,-35.4331 0,-19.5307 -15.9024,-35.4331 -35.4332,-35.4331 -19.5024,0 -35.4332,15.9024 -35.4332,35.4331 0,19.5024 15.9308,35.4331 35.4332,35.4331 z"
       id="path15" />
    <path
       style="fill:#66aaff;fill-opacity:1;fill-rule:evenodd;stroke:none;stroke-width:0.999998"
       d="m 272.12678,1306.5466 c 16.18587,16.2142 32.37175,32.4 48.58597,48.6143 3.03308,3.0331 7.3701,3.8834 11.36696,2.2393 3.96851,-1.6441 6.43466,-5.3291 6.43466,-9.6378 0,-32.3717 0,-64.7717 0,-97.1718 0,-4.3087 -2.46615,-7.9937 -6.43466,-9.6378 -3.99686,-1.6441 -8.33388,-0.7937 -11.36696,2.2677 -16.21422,16.1859 -32.4001,32.4001 -48.58597,48.5859 -4.0819,4.0536 -4.0819,10.6867 0,14.7402 z"
       id="path16" />
    <path
       style="fill:#66aaff;fill-opacity:1;fill-rule:evenodd;stroke:none;stroke-width:0.999998"
       d="m 485.3778,1519.8257 c -16.18588,-16.2143 -32.4001,-32.4001 -48.58597,-48.5859 -3.03308,-3.0615 -3.91182,-7.3985 -2.26773,-11.367 1.6441,-3.9969 5.32915,-6.463 9.63783,-6.463 32.40009,0 64.80018,0 97.17194,0 4.30867,0 7.99372,2.4661 9.63782,6.463 1.67244,3.9685 0.7937,8.3055 -2.23938,11.367 -16.21422,16.1858 -32.4001,32.3716 -48.58597,48.5859 -4.0819,4.0535 -10.71499,4.0535 -14.76854,0 z"
       id="path17" />
    <path
       style="fill:#66aaff;fill-opacity:1;fill-rule:evenodd;stroke:none;stroke-width:0.999998"
       d="m 713.39736,1306.5466 c -16.18588,16.2142 -32.4001,32.4 -48.58597,48.6143 -3.06143,3.0331 -7.39845,3.8834 -11.36696,2.2393 -3.99687,-1.6441 -6.43466,-5.3291 -6.43466,-9.6378 0,-32.3717 0,-64.7717 0,-97.1718 0,-4.3087 2.43779,-7.9937 6.43466,-9.6378 3.96851,-1.6441 8.30553,-0.7937 11.36696,2.2677 16.18587,16.1859 32.40009,32.4001 48.58597,48.5859 4.05355,4.0536 4.05355,10.6867 0,14.7402 z"
       id="path18" />
    <path
       style="fill:#66aaff;fill-opacity:1;fill-rule:evenodd;stroke:none;stroke-width:0.999998"
       d="m 485.3778,1078.5557 c -16.18588,16.1859 -32.4001,32.3718 -48.58597,48.5859 -3.03308,3.0331 -3.91182,7.3701 -2.26773,11.367 1.6441,3.9685 5.32915,6.4346 9.63783,6.4346 32.40009,0 64.80018,0 97.17194,0 4.30867,0 7.99372,-2.4661 9.63782,-6.4346 1.67244,-3.9969 0.7937,-8.3339 -2.23938,-11.367 -16.21422,-16.2141 -32.4001,-32.4 -48.58597,-48.5859 -4.0819,-4.0819 -10.71499,-4.0819 -14.76854,0 z"
       id="path19" />
    <path
       style="fill:#66aaff;fill-opacity:1;fill-rule:evenodd;stroke:none;stroke-width:0.999998"
       d="m 492.74789,1334.6096 c 19.53077,0 35.43318,-15.9024 35.43318,-35.4331 0,-19.5023 -15.90241,-35.4331 -35.43318,-35.4331 -19.50241,0 -35.43317,15.9308 -35.43317,35.4331 0,19.5307 15.93076,35.4331 35.43317,35.4331 z"
       id="path20" />
    <path
       style="fill:#66aaff;fill-opacity:1;fill-rule:evenodd;stroke:none;stroke-width:0.999998"
       d="m 1299.4054,1283.841 h -23.6127 c -16.2426,0 -29.5371,13.2663 -29.5371,29.5088 v 0 c 0,16.2425 13.2945,29.537 29.5371,29.537 h 23.6127 c 16.2425,0 29.5087,-13.2945 29.5087,-29.537 v 0 c 0,-16.2425 -13.2662,-29.5088 -29.5087,-29.5088 z"
       id="path21" />
    <path
       style="fill:#66aaff;fill-opacity:1;fill-rule:evenodd;stroke:none;stroke-width:0.999998"
       d="m 850.62299,1283.841 h 23.61264 c 16.24257,0 29.50876,13.2663 29.50876,29.5088 v 0 c 0,16.2425 -13.26619,29.537 -29.50876,29.537 h -23.61264 c -16.24257,0 -29.53712,-13.2945 -29.53712,-29.537 v 0 c 0,-16.2425 13.29455,-29.5088 29.53712,-29.5088 z"
       id="path22" />
    <path
       style="fill:#66aaff;fill-opacity:1;fill-rule:evenodd;stroke:none;stroke-width:0.999998"
       d="m 1075.0142,1413.3562 c 55.0773,0 99.9782,-44.9292 99.9782,-100.0064 0,-55.0773 -44.9009,-100.0065 -99.9782,-100.0065 -55.0774,0 -100.0066,44.9292 -100.0066,100.0065 0,55.0772 44.9292,100.0064 100.0066,100.0064 z"
       id="path23" />
    <path
       style="fill:#66aaff;fill-opacity:1;fill-rule:evenodd;stroke:none;stroke-width:0.999998"
       d="m 1677.3214,590.68425 c 19.5308,0 35.4332,-15.90239 35.4332,-35.43312 0,-19.50239 -15.9024,-35.43313 -35.4332,-35.43313 -19.5024,0 -35.4331,15.93074 -35.4331,35.43313 0,19.53073 15.9307,35.43312 35.4331,35.43312 z"
       id="path24" />
    <path
       style="fill:#66aaff;fill-opacity:1;fill-rule:evenodd;stroke:none;stroke-width:0.999998"
       d="m 472.67855,590.68425 c 19.53076,0 35.43317,-15.90239 35.43317,-35.43312 0,-19.50239 -15.90241,-35.43313 -35.43317,-35.43313 -19.50243,0 -35.43318,15.93074 -35.43318,35.43313 0,19.53073 15.93075,35.43312 35.43318,35.43312 z"
       id="path25" />
    <path
       style="fill:#66aaff;fill-opacity:1;fill-rule:evenodd;stroke:none;stroke-width:0.999998"
       d="m 1616.8016,12.897652 c -16.1859,16.214195 -32.4001,32.400045 -48.586,48.61424 -3.0614,3.033072 -3.9118,7.370088 -2.2677,11.366943 1.6441,3.968511 5.3291,6.43465 9.6378,6.43465 32.4001,0 64.8002,0 97.1719,0 4.3087,0 7.9938,-2.466139 9.6378,-6.43465 1.6725,-3.996855 0.7938,-8.333871 -2.2393,-11.366943 -16.2142,-16.214195 -32.4001,-32.400045 -48.586,-48.61424 -4.0819,-4.053545 -10.715,-4.053545 -14.7685,0 z"
       id="path26" />
    <path
       style="fill:#66aaff;fill-opacity:1;fill-rule:evenodd;stroke:none;stroke-width:0.999998"
       d="m 518.45821,12.897652 c -16.21422,16.214195 -32.4001,32.400045 -48.58597,48.61424 -3.06142,3.033072 -3.91183,7.370088 -2.26772,11.366943 1.64409,3.968511 5.32915,6.43465 9.63782,6.43465 32.4001,0 64.77184,0 97.17193,0 4.30868,0 7.99373,-2.466139 9.63783,-6.43465 1.6441,-3.996855 0.7937,-8.333871 -2.26772,-11.366943 -16.18588,-16.214195 -32.37175,-32.400045 -48.58597,-48.61424 -4.05356,-4.053545 -10.68664,-4.053545 -14.7402,0 z"
       id="path27" />
    <path
       style="fill:#353535;fill-opacity:1;fill-rule:evenodd;stroke:none;stroke-width:0.999998"
       d="m 845.29381,1308.8427 23.72602,-11.9056 c 1.61577,-0.7937 3.37328,-0.737 4.90398,0.2268 1.53069,0.9354 2.40945,2.4661 2.40945,4.2804 v 23.811 c 0,1.8142 -0.87876,3.3449 -2.40945,4.3087 -1.5307,0.9354 -3.28821,1.0205 -4.90398,0.1984 l -23.72602,-11.9055 c -1.75751,-0.8788 -2.778,-2.5512 -2.778,-4.5071 0,-1.9559 1.02049,-3.6284 2.778,-4.5071 z"
       id="path28" />
    <path
       style="fill:#353535;fill-opacity:1;fill-rule:evenodd;stroke:none;stroke-width:0.999998"
       d="m 1304.7062,1308.8427 -23.7261,-11.9056 c -1.6157,-0.7937 -3.3732,-0.737 -4.9039,0.2268 -1.5307,0.9354 -2.3812,2.4661 -2.3812,4.2804 v 23.811 c 0,1.8142 0.8505,3.3449 2.3812,4.3087 1.5307,0.9354 3.2882,1.0205 4.9039,0.1984 l 23.7261,-11.9055 c 1.7575,-0.8788 2.7779,-2.5512 2.7779,-4.5071 0,-1.9559 -1.0204,-3.6284 -2.7779,-4.5071 z"
       id="path29" />
    <path
       style="fill:#353535;fill-opacity:1;fill-rule:nonzero;stroke:none;stroke-width:0.999998"
       d="m 1510.7005,1299.2899 25.852,34.7245 c 0.9354,1.2472 0.652,3.0047 -0.5953,3.9402 -0.5102,0.3684 -1.1055,0.5669 -1.6724,0.5669 h -9.6945 c -1.0205,0 -1.8425,-0.5669 -2.4095,-1.3323 l -19.7008,-26.9009 -19.7292,27.071 c -0.5386,0.737 -1.389,1.1622 -2.2678,1.1622 h -9.8079 c -1.559,0 -2.8346,-1.2756 -2.8346,-2.8347 0,-0.7087 0.3118,-1.3323 0.7087,-1.8709 l 25.7103,-34.6394 -24.5481,-32.9953 c -0.9355,-1.2756 -0.6803,-3.0331 0.5953,-3.9685 0.4818,-0.3685 1.0771,-0.5669 1.6724,-0.5669 h 9.8079 c 0.9921,0 1.8141,0.5385 2.3811,1.3039 l 18.3969,25.3134 18.5103,-25.4268 c 0.5669,-0.7654 1.4173,-1.1905 2.296,-1.1905 h 9.6946 c 1.5874,0 2.8346,1.2756 2.8346,2.8346 0,0.7087 -0.2835,1.3323 -0.6803,1.8709 z"
       id="path30" />
    <path
       style="fill:#353535;fill-opacity:1;fill-rule:nonzero;stroke:none;stroke-width:0.999998"
       d="m 1689.7089,1117.0503 -27.4112,41.5276 v 27.978 c 0,1.559 -1.2756,2.8346 -2.8346,2.8346 h -8.1921 c -1.5874,0 -2.8347,-1.2756 -2.8347,-2.8346 v -28.063 l -27.5245,-41.5843 c -0.8787,-1.3039 -0.5103,-3.0614 0.7937,-3.9118 0.4819,-0.3402 1.0205,-0.482 1.5591,-0.482 h 9.6095 c 1.0487,0 1.9275,0.6237 2.4661,1.4458 l 20.126,31.1811 20.2111,-31.3229 c 0.5386,-0.8504 1.4457,-1.304 2.3812,-1.304 h 9.411 c 1.5591,0 2.8347,1.2756 2.8347,2.8347 0,0.652 -0.2551,1.2189 -0.5953,1.7008 z"
       id="path31" />
    <path
       style="fill:#353535;fill-opacity:1;fill-rule:nonzero;stroke:none;stroke-width:0.999998"
       d="m 1679.1923,1487.7374 -7.0016,-16.3842 h -33.4773 l -7.1433,16.5826 c -0.4535,1.0772 -1.5023,1.7292 -2.6079,1.7292 h -8.5039 c -1.5591,0 -2.8347,-1.2756 -2.8347,-2.8347 0,-0.4535 0.1418,-0.8788 0.3119,-1.2756 l 31.2378,-71.0646 c 0.4535,-1.0772 1.5024,-1.7008 2.5795,-1.7008 h 7.2001 c 1.2188,0 2.211,0.7937 2.6645,1.8425 l 31.2379,71.0646 c 0.6237,1.4174 -0.028,3.0899 -1.4456,3.7135 -0.3685,0.17 -0.7654,0.2551 -1.1339,0.2551 h -8.4189 c -1.2189,0 -2.211,-0.8221 -2.6646,-1.9276 z m -35.1214,-28.8567 h 22.7906 l -11.3953,-26.589 z"
       id="path32" />
    <path
       style="fill:#353535;fill-opacity:1;fill-rule:nonzero;stroke:none;stroke-width:0.999998"
       d="m 1835.1266,1298.7797 c 2.0693,1.2473 3.8268,2.8346 5.3008,4.7338 2.6646,3.4866 3.9685,7.7387 3.9685,12.7843 0,3.4866 -0.5669,6.6047 -1.7574,9.3544 -1.219,2.8063 -3.0615,5.1874 -5.471,7.1716 -2.381,1.9275 -5.1873,3.3733 -8.5039,4.3087 -3.1748,0.9354 -6.7749,1.389 -10.8,1.389 h -29.5938 c -1.5591,0 -2.8347,-1.2756 -2.8347,-2.8347 v -71.2064 c 0,-1.559 1.2756,-2.8346 2.8347,-2.8346 h 28.6017 c 3.8834,0 7.37,0.4535 10.4598,1.3322 3.2032,0.9072 5.9528,2.2961 8.2772,4.167 2.3811,1.8992 4.167,4.1953 5.3575,6.9166 1.1622,2.6645 1.7575,5.6692 1.7575,9.0141 0,4.3937 -1.1622,8.2205 -3.4866,11.5087 -1.1622,1.6157 -2.5229,3.0047 -4.1103,4.1953 z m -35.915,-5.5276 h 16.3559 c 4.7055,0 8.1638,-0.8788 10.3748,-2.5795 2.2961,-1.8142 3.0048,-4.3654 3.0048,-7.2001 0,-6.2362 -4.4504,-9.3543 -13.3796,-9.3543 h -16.3559 z m 17.9716,32.7969 c 4.9324,0 8.4757,-0.8504 10.5733,-2.5228 0.9355,-0.7654 1.6441,-1.7008 2.126,-2.8347 0.5103,-1.2472 0.7654,-2.7779 0.7654,-4.6204 0,-3.4584 -1.0205,-5.9811 -3.0331,-7.5969 -2.1827,-1.7858 -5.6693,-2.6646 -10.4316,-2.6646 h -17.9716 v 20.2394 z"
       id="path33" />
    <path
       style="fill:#353535;fill-opacity:1;fill-rule:evenodd;stroke:none;stroke-width:0.999998"
       d="m 1075.0142,1224.852 c 17.1213,0 33.0804,4.8756 46.63,13.2662 -17.3764,-0.4819 -33.4206,6.6898 -44.1072,12.926 -1.6158,0.9354 -3.4583,0.9354 -5.074,0 -10.6867,-6.2362 -26.7308,-13.4079 -44.1073,-12.926 13.5497,-8.3906 29.5372,-13.2662 46.6585,-13.2662 z m 60.7466,24.1513 c 17.093,16.1291 27.7513,39.0047 27.7513,64.3465 0,20.3244 -6.8599,39.0331 -18.3686,53.9717 2.8913,-29.5937 -30.0757,-71.6032 -43.767,-88.2993 -1.5025,-1.8142 -1.5591,-4.3654 -0.1134,-6.2646 8.3906,-10.9418 19.5024,-19.5875 34.4977,-23.7543 z m 1.0204,127.7292 c -15.9591,15.5339 -37.7575,25.1151 -61.767,25.1151 -24.0379,0 -45.8364,-9.5812 -61.7672,-25.1151 -0.3118,-27.3259 36.5671,-59.2158 58.5356,-77.4993 1.8709,-1.5874 4.5638,-1.5874 6.4347,0 21.9686,18.2835 58.8474,50.1734 58.5639,77.4993 z m -131.9247,-9.411 c -11.50871,-14.9386 -18.34023,-33.6473 -18.34023,-53.9717 0,-25.3418 10.65829,-48.2174 27.72293,-64.3465 14.9953,4.1668 26.1071,12.8125 34.4977,23.7543 1.4457,1.8992 1.4173,4.4504 -0.085,6.2646 -13.6914,16.6961 -46.6584,58.7056 -43.7954,88.2993 z m 70.1577,-154.3466 c 55.4458,0 100.375,44.9292 100.375,100.3749 0,55.4457 -44.9292,100.4032 -100.375,100.4032 -55.4459,0 -100.40351,-44.9575 -100.40351,-100.4032 0,-55.4457 44.95761,-100.3749 100.40351,-100.3749 z"
       id="path34" />
  </g>
</svg>
