<?xml version="1.0" encoding="UTF-8" standalone="no"?>
<!-- Created with Inkscape (http://www.inkscape.org/) -->

<svg
   width="2150"
   height="2380"
   viewBox="0 0 2150 2380"
   version="1.1"
   id="svg1"
   inkscape:version="1.3 (0e150ed6c4, 2023-07-21)"
   sodipodi:docname="X360Controller_Buttons.svg"
   xmlns:inkscape="http://www.inkscape.org/namespaces/inkscape"
   xmlns:sodipodi="http://sodipodi.sourceforge.net/DTD/sodipodi-0.dtd"
   xmlns="http://www.w3.org/2000/svg"
   xmlns:svg="http://www.w3.org/2000/svg">
  <sodipodi:namedview
     id="namedview1"
     pagecolor="#ffffff"
     bordercolor="#666666"
     borderopacity="1.0"
     inkscape:showpageshadow="2"
     inkscape:pageopacity="0.0"
     inkscape:pagecheckerboard="0"
     inkscape:deskcolor="#d1d1d1"
     inkscape:document-units="px"
     inkscape:zoom="0.25796667"
     inkscape:cx="2133.9966"
     inkscape:cy="1122.238"
     inkscape:window-width="1920"
     inkscape:window-height="1009"
     inkscape:window-x="-8"
     inkscape:window-y="-8"
     inkscape:window-maximized="1"
     inkscape:current-layer="layer1"
     showgrid="false" />
  <defs
     id="defs1">
    <pattern
       id="EMFhbasepattern"
       patternUnits="userSpaceOnUse"
       width="6"
       height="6"
       x="0"
       y="0" />
    <pattern
       id="EMFhbasepattern-1"
       patternUnits="userSpaceOnUse"
       width="6"
       height="6"
       x="0"
       y="0" />
    <pattern
       id="EMFhbasepattern-4"
       patternUnits="userSpaceOnUse"
       width="6"
       height="6"
       x="0"
       y="0" />
    <pattern
       id="EMFhbasepattern-3"
       patternUnits="userSpaceOnUse"
       width="6"
       height="6"
       x="0"
       y="0" />
    <pattern
       id="EMFhbasepattern-9"
       patternUnits="userSpaceOnUse"
       width="6"
       height="6"
       x="0"
       y="0" />
  </defs>
  <g
     inkscape:label="Layer 1"
     inkscape:groupmode="layer"
     id="layer1">
    <path
       style="fill:#ff0000;fill-opacity:1;fill-rule:evenodd;stroke:none;stroke-width:0.999998"
       d="M 0,2380 H 2150 V 0 H 0 Z"
       id="path1" />
    <path
       style="fill:#6699ff;fill-opacity:1;fill-rule:evenodd;stroke:none;stroke-width:0.999998"
       d="m 1346.631,1680.664 c 19.531,0 35.433,-15.931 35.433,-35.433 0,-19.531 -15.902,-35.433 -35.433,-35.433 -19.502,0 -35.433,15.902 -35.433,35.433 0,19.502 15.931,35.433 35.433,35.433 z"
       id="path2" />
    <path
       style="fill:#6699ff;fill-opacity:1;fill-rule:evenodd;stroke:none;stroke-width:0.999998"
       d="m 1502.48,1359.073 c 32.485,0 58.989,-26.504 58.989,-58.989 0,-32.485 -26.504,-58.989 -58.989,-58.989 -32.514,0 -59.017,26.504 -59.017,58.989 0,32.485 26.504,58.989 59.017,58.989 z"
       id="path4" />
    <path
       style="fill:#6699ff;fill-opacity:1;fill-rule:evenodd;stroke:none;stroke-width:0.999998"
       d="m 1655.353,1515.234 c 32.513,0 59.017,-26.504 59.017,-59.017 0,-32.485 -26.504,-58.989 -59.017,-58.989 -32.485,0 -58.989,26.504 -58.989,58.989 0,32.513 26.504,59.017 58.989,59.017 z"
       id="path5" />
    <path
       style="fill:#6699ff;fill-opacity:1;fill-rule:evenodd;stroke:none;stroke-width:0.999998"
       d="m 1811.174,1359.073 c 32.513,0 59.017,-26.504 59.017,-58.989 0,-32.485 -26.504,-58.989 -59.017,-58.989 -32.485,0 -58.989,26.504 -58.989,58.989 0,32.485 26.504,58.989 58.989,58.989 z"
       id="path6" />
    <path
       style="fill:#6699ff;fill-opacity:1;fill-rule:evenodd;stroke:none;stroke-width:0.999998"
       d="m 1655.353,1204.953 c 32.513,0 59.017,-26.504 59.017,-59.017 0,-32.485 -26.504,-58.989 -59.017,-58.989 -32.485,0 -58.989,26.504 -58.989,58.989 0,32.513 26.504,59.017 58.989,59.017 z"
       id="path7" />
    <path
       style="fill:#6699ff;fill-opacity:1;fill-rule:evenodd;stroke:none;stroke-width:0.999998"
       d="m 661.637,1680.664 c 19.531,0 35.433,-15.931 35.433,-35.433 0,-19.531 -15.902,-35.433 -35.433,-35.433 -19.502,0 -35.433,15.902 -35.433,35.433 0,19.502 15.931,35.433 35.433,35.433 z"
       id="path8" />
    <path
       style="fill:#6699ff;fill-opacity:1;fill-rule:evenodd;stroke:none;stroke-width:0.999998"
       d="m 767.936,1786.935 c 19.531,0 35.433,-15.902 35.433,-35.433 0,-19.502 -15.902,-35.405 -35.433,-35.405 -19.502,0 -35.433,15.902 -35.433,35.405 0,19.531 15.931,35.433 35.433,35.433 z"
       id="path9" />
    <path
       style="fill:#6699ff;fill-opacity:1;fill-rule:evenodd;stroke:none;stroke-width:0.999998"
       d="m 874.236,1680.664 c 19.502,0 35.433,-15.931 35.433,-35.433 0,-19.531 -15.931,-35.433 -35.433,-35.433 -19.531,0 -35.433,15.902 -35.433,35.433 0,19.502 15.902,35.433 35.433,35.433 z"
       id="path10" />
    <path
       style="fill:#6699ff;fill-opacity:1;fill-rule:evenodd;stroke:none;stroke-width:0.999998"
       d="m 767.936,1574.364 c 19.531,0 35.433,-15.931 35.433,-35.433 0,-19.531 -15.902,-35.433 -35.433,-35.433 -19.502,0 -35.433,15.902 -35.433,35.433 0,19.502 15.931,35.433 35.433,35.433 z"
       id="path11" />
    <path
       style="fill:#6699ff;fill-opacity:1;fill-rule:evenodd;stroke:none;stroke-width:0.999998"
       d="m 767.936,1680.664 c 19.531,0 35.433,-15.931 35.433,-35.433 0,-19.531 -15.902,-35.433 -35.433,-35.433 -19.502,0 -35.433,15.902 -35.433,35.433 0,19.502 15.931,35.433 35.433,35.433 z"
       id="path12" />
    <path
       style="fill:#6699ff;fill-opacity:1;fill-rule:evenodd;stroke:none;stroke-width:0.999998"
       d="m 492.748,1334.61 c 19.531,0 35.433,-15.902 35.433,-35.433 0,-19.502 -15.902,-35.433 -35.433,-35.433 -19.502,0 -35.433,15.931 -35.433,35.433 0,19.531 15.931,35.433 35.433,35.433 z"
       id="path13" />
    <path
       style="fill:#6699ff;fill-opacity:1;fill-rule:evenodd;stroke:none;stroke-width:0.999998"
       d="m 1299.405,1283.841 h -23.613 c -16.243,0 -29.537,13.266 -29.537,29.509 v 0 c 0,16.242 13.294,29.537 29.537,29.537 h 23.613 c 16.242,0 29.509,-13.294 29.509,-29.537 v 0 c 0,-16.242 -13.266,-29.509 -29.509,-29.509 z"
       id="path14" />
    <path
       style="fill:#6699ff;fill-opacity:1;fill-rule:evenodd;stroke:none;stroke-width:0.999998"
       d="m 850.623,1283.841 h 23.613 c 16.243,0 29.509,13.266 29.509,29.509 v 0 c 0,16.242 -13.266,29.537 -29.509,29.537 h -23.613 c -16.243,0 -29.537,-13.294 -29.537,-29.537 v 0 c 0,-16.242 13.295,-29.509 29.537,-29.509 z"
       id="path15" />
    <path
       style="fill:#6699ff;fill-opacity:1;fill-rule:evenodd;stroke:none;stroke-width:0.999998"
       d="m 1075.014,1413.356 c 55.077,0 99.978,-44.929 99.978,-100.006 0,-55.077 -44.901,-100.007 -99.978,-100.007 -55.077,0 -100.007,44.929 -100.007,100.007 0,55.077 44.929,100.006 100.007,100.006 z"
       id="path16" />
    <path
       style="fill:#6699ff;fill-opacity:1;fill-rule:evenodd;stroke:none;stroke-width:0.999998"
       d="m 1677.321,590.684 c 19.531,0 35.433,-15.902 35.433,-35.433 0,-19.502 -15.902,-35.433 -35.433,-35.433 -19.502,0 -35.433,15.931 -35.433,35.433 0,19.531 15.931,35.433 35.433,35.433 z"
       id="path17" />
    <path
       style="fill:#6699ff;fill-opacity:1;fill-rule:evenodd;stroke:none;stroke-width:0.999998"
       d="m 472.679,590.684 c 19.531,0 35.433,-15.902 35.433,-35.433 0,-19.502 -15.902,-35.433 -35.433,-35.433 -19.502,0 -35.433,15.931 -35.433,35.433 0,19.531 15.931,35.433 35.433,35.433 z"
       id="path18" />
    <path
       style="fill:#6699ff;fill-opacity:1;fill-rule:evenodd;stroke:none;stroke-width:0.999998"
       d="m 499.835,1078.442 49.862,49.861 c 2.92,2.92 3.742,7.058 2.154,10.885 -1.587,3.827 -5.102,6.179 -9.241,6.179 h -99.723 c -4.11,0 -7.654,-2.353 -9.213,-6.179 -1.587,-3.827 -0.765,-7.965 2.154,-10.885 l 49.862,-49.861 c 3.883,-3.912 10.233,-3.912 14.145,0 z"
       id="path19" />
    <path
       style="fill:#6699ff;fill-opacity:1;fill-rule:evenodd;stroke:none;stroke-width:0.999998"
       d="m 713.511,1292.118 -49.862,-49.861 c -2.92,-2.92 -7.087,-3.742 -10.913,-2.183 -3.798,1.587 -6.151,5.131 -6.151,9.241 v 99.723 c 0,4.139 2.353,7.654 6.151,9.241 3.827,1.587 7.994,0.765 10.913,-2.183 l 49.862,-49.833 c 3.884,-3.912 3.884,-10.261 0,-14.145 z"
       id="path20" />
    <path
       style="fill:#6699ff;fill-opacity:1;fill-rule:evenodd;stroke:none;stroke-width:0.999998"
       d="m 499.835,1519.939 49.862,-49.861 c 2.92,-2.92 3.742,-7.087 2.154,-10.914 -1.587,-3.798 -5.102,-6.179 -9.241,-6.179 h -99.723 c -4.11,0 -7.654,2.381 -9.213,6.179 -1.587,3.827 -0.765,7.994 2.154,10.914 l 49.862,49.861 c 3.883,3.884 10.233,3.884 14.145,0 z"
       id="path21" />
    <path
       style="fill:#6699ff;fill-opacity:1;fill-rule:evenodd;stroke:none;stroke-width:0.999998"
       d="m 272.013,1292.118 49.862,-49.861 c 2.92,-2.92 7.087,-3.742 10.885,-2.183 3.827,1.587 6.179,5.131 6.179,9.241 v 99.723 c 0,4.139 -2.353,7.654 -6.179,9.241 -3.798,1.587 -7.965,0.765 -10.885,-2.183 l -49.862,-49.833 c -3.884,-3.912 -3.884,-10.261 0,-14.145 z"
       id="path22" />
    <path
       style="fill:#6699ff;fill-opacity:1;fill-rule:evenodd;stroke:none;stroke-width:0.999998"
       d="m 1353.717,1424.468 49.862,49.861 c 2.92,2.92 3.742,7.087 2.154,10.913 -1.587,3.799 -5.102,6.151 -9.241,6.151 h -99.723 c -4.11,0 -7.654,-2.353 -9.213,-6.151 -1.587,-3.827 -0.765,-7.994 2.154,-10.913 l 49.862,-49.861 c 3.884,-3.883 10.233,-3.883 14.145,0 z"
       id="path23" />
    <path
       style="fill:#6699ff;fill-opacity:1;fill-rule:evenodd;stroke:none;stroke-width:0.999998"
       d="m 1567.393,1638.144 -49.861,-49.861 c -2.92,-2.92 -7.087,-3.742 -10.913,-2.154 -3.798,1.587 -6.151,5.102 -6.151,9.241 v 99.723 c 0,4.11 2.353,7.654 6.151,9.213 3.827,1.587 7.994,0.765 10.913,-2.154 l 49.861,-49.861 c 3.884,-3.883 3.884,-10.233 0,-14.145 z"
       id="path24" />
    <path
       style="fill:#6699ff;fill-opacity:1;fill-rule:evenodd;stroke:none;stroke-width:0.999998"
       d="m 1353.717,1865.965 49.862,-49.861 c 2.92,-2.92 3.742,-7.087 2.154,-10.885 -1.587,-3.827 -5.102,-6.179 -9.241,-6.179 h -99.723 c -4.11,0 -7.654,2.353 -9.213,6.179 -1.587,3.799 -0.765,7.965 2.154,10.885 l 49.862,49.861 c 3.884,3.912 10.233,3.912 14.145,0 z"
       id="path25" />
    <path
       style="fill:#6699ff;fill-opacity:1;fill-rule:evenodd;stroke:none;stroke-width:0.999998"
       d="m 1125.896,1638.144 49.862,-49.861 c 2.92,-2.92 7.087,-3.742 10.885,-2.154 3.827,1.587 6.18,5.102 6.18,9.241 v 99.723 c 0,4.11 -2.353,7.654 -6.18,9.213 -3.798,1.587 -7.965,0.765 -10.885,-2.154 l -49.862,-49.861 c -3.912,-3.883 -3.912,-10.233 0,-14.145 z"
       id="path26" />
    <path
       style="fill:#6699ff;fill-opacity:1;fill-rule:evenodd;stroke:none;stroke-width:0.999998"
       d="m 1631.258,12.387 49.861,49.861 c 2.92,2.92 3.742,7.058 2.154,10.885 -1.587,3.827 -5.102,6.18 -9.241,6.18 h -99.723 c -4.11,0 -7.654,-2.353 -9.241,-6.18 -1.559,-3.827 -0.737,-7.965 2.183,-10.885 l 49.861,-49.861 c 3.884,-3.912 10.233,-3.912 14.145,0 z"
       id="path27" />
    <path
       style="fill:#6699ff;fill-opacity:1;fill-rule:evenodd;stroke:none;stroke-width:0.999998"
       d="m 532.887,12.387 49.862,49.861 c 2.92,2.92 3.77,7.058 2.183,10.885 -1.587,3.827 -5.102,6.18 -9.241,6.18 h -99.723 c -4.139,0 -7.654,-2.353 -9.241,-6.18 -1.587,-3.827 -0.737,-7.965 2.183,-10.885 l 49.862,-49.861 c 3.883,-3.912 10.233,-3.912 14.117,0 z"
       id="path28" />
    <path
       style="fill:#353535;fill-opacity:1;fill-rule:evenodd;stroke:none;stroke-width:0.999998"
       d="m 845.294,1308.843 23.726,-11.906 c 1.616,-0.794 3.373,-0.737 4.904,0.227 1.531,0.935 2.409,2.466 2.409,4.28 v 23.811 c 0,1.814 -0.879,3.345 -2.409,4.309 -1.531,0.935 -3.288,1.02 -4.904,0.198 l -23.726,-11.905 c -1.758,-0.879 -2.778,-2.551 -2.778,-4.507 0,-1.956 1.02,-3.628 2.778,-4.507 z"
       id="path29" />
    <path
       style="fill:#353535;fill-opacity:1;fill-rule:evenodd;stroke:none;stroke-width:0.999998"
       d="m 1304.706,1308.843 -23.726,-11.906 c -1.616,-0.794 -3.373,-0.737 -4.904,0.227 -1.531,0.935 -2.381,2.466 -2.381,4.28 v 23.811 c 0,1.814 0.851,3.345 2.381,4.309 1.531,0.935 3.288,1.02 4.904,0.198 l 23.726,-11.905 c 1.758,-0.879 2.778,-2.551 2.778,-4.507 0,-1.956 -1.02,-3.628 -2.778,-4.507 z"
       id="path30" />
    <path
       style="fill:#353535;fill-opacity:1;fill-rule:nonzero;stroke:none;stroke-width:0.999998"
       d="m 1510.7,1299.29 25.852,34.724 c 0.935,1.247 0.652,3.005 -0.595,3.94 -0.51,0.368 -1.105,0.567 -1.672,0.567 h -9.694 c -1.02,0 -1.843,-0.567 -2.409,-1.332 l -19.701,-26.901 -19.729,27.071 c -0.539,0.737 -1.389,1.162 -2.268,1.162 h -9.808 c -1.559,0 -2.835,-1.276 -2.835,-2.835 0,-0.709 0.312,-1.332 0.709,-1.871 l 25.71,-34.639 -24.548,-32.995 c -0.935,-1.276 -0.68,-3.033 0.595,-3.969 0.482,-0.368 1.077,-0.567 1.672,-0.567 h 9.808 c 0.992,0 1.814,0.538 2.381,1.304 l 18.397,25.313 18.51,-25.427 c 0.567,-0.765 1.417,-1.19 2.296,-1.19 h 9.695 c 1.587,0 2.835,1.276 2.835,2.835 0,0.709 -0.283,1.332 -0.68,1.871 z"
       id="path31" />
    <path
       style="fill:#353535;fill-opacity:1;fill-rule:nonzero;stroke:none;stroke-width:0.999998"
       d="m 1689.709,1117.05 -27.411,41.528 v 27.978 c 0,1.559 -1.276,2.835 -2.835,2.835 h -8.192 c -1.587,0 -2.835,-1.276 -2.835,-2.835 v -28.063 l -27.524,-41.584 c -0.879,-1.304 -0.51,-3.061 0.794,-3.912 0.482,-0.34 1.02,-0.482 1.559,-0.482 h 9.61 c 1.049,0 1.927,0.624 2.466,1.446 l 20.126,31.181 20.211,-31.323 c 0.539,-0.85 1.446,-1.304 2.381,-1.304 h 9.411 c 1.559,0 2.835,1.276 2.835,2.835 0,0.652 -0.255,1.219 -0.595,1.701 z"
       id="path32" />
    <path
       style="fill:#353535;fill-opacity:1;fill-rule:nonzero;stroke:none;stroke-width:0.999998"
       d="m 1679.192,1487.737 -7.002,-16.384 h -33.477 l -7.143,16.583 c -0.454,1.077 -1.502,1.729 -2.608,1.729 h -8.504 c -1.559,0 -2.835,-1.276 -2.835,-2.835 0,-0.454 0.142,-0.879 0.312,-1.276 l 31.238,-71.065 c 0.454,-1.077 1.502,-1.701 2.579,-1.701 h 7.2 c 1.219,0 2.211,0.794 2.664,1.843 l 31.238,71.065 c 0.624,1.417 -0.028,3.09 -1.446,3.713 -0.368,0.17 -0.765,0.255 -1.134,0.255 h -8.419 c -1.219,0 -2.211,-0.822 -2.665,-1.928 z m -35.121,-28.857 h 22.791 l -11.395,-26.589 z"
       id="path33" />
    <path
       style="fill:#353535;fill-opacity:1;fill-rule:nonzero;stroke:none;stroke-width:0.999998"
       d="m 1835.127,1298.78 c 2.069,1.247 3.827,2.835 5.301,4.734 2.665,3.487 3.969,7.739 3.969,12.784 0,3.487 -0.567,6.605 -1.757,9.354 -1.219,2.806 -3.062,5.187 -5.471,7.172 -2.381,1.927 -5.187,3.373 -8.504,4.309 -3.175,0.935 -6.775,1.389 -10.8,1.389 h -29.594 c -1.559,0 -2.835,-1.276 -2.835,-2.835 v -71.206 c 0,-1.559 1.276,-2.835 2.835,-2.835 h 28.602 c 3.883,0 7.37,0.454 10.46,1.332 3.203,0.907 5.953,2.296 8.277,4.167 2.381,1.899 4.167,4.195 5.357,6.917 1.162,2.664 1.758,5.669 1.758,9.014 0,4.394 -1.162,8.22 -3.487,11.509 -1.162,1.616 -2.523,3.005 -4.11,4.195 z m -35.915,-5.528 h 16.356 c 4.705,0 8.164,-0.879 10.375,-2.579 2.296,-1.814 3.005,-4.365 3.005,-7.2 0,-6.236 -4.45,-9.354 -13.38,-9.354 h -16.356 z m 17.972,32.797 c 4.932,0 8.476,-0.85 10.573,-2.523 0.935,-0.765 1.644,-1.701 2.126,-2.835 0.51,-1.247 0.765,-2.778 0.765,-4.62 0,-3.458 -1.02,-5.981 -3.033,-7.597 -2.183,-1.786 -5.669,-2.665 -10.432,-2.665 h -17.972 v 20.239 z"
       id="path34" />
    <path
       style="fill:#353535;fill-opacity:1;fill-rule:evenodd;stroke:none;stroke-width:0.999998"
       d="m 1075.014,1224.852 c 17.121,0 33.08,4.876 46.63,13.266 -17.376,-0.482 -33.421,6.69 -44.107,12.926 -1.616,0.935 -3.458,0.935 -5.074,0 -10.687,-6.236 -26.731,-13.408 -44.107,-12.926 13.55,-8.391 29.537,-13.266 46.658,-13.266 z m 60.747,24.151 c 17.093,16.129 27.751,39.005 27.751,64.347 0,20.324 -6.86,39.033 -18.369,53.972 2.891,-29.594 -30.076,-71.603 -43.767,-88.299 -1.502,-1.814 -1.559,-4.365 -0.113,-6.265 8.391,-10.942 19.502,-19.587 34.498,-23.754 z m 1.02,127.729 c -15.959,15.534 -37.758,25.115 -61.767,25.115 -24.038,0 -45.836,-9.581 -61.767,-25.115 -0.312,-27.326 36.567,-59.216 58.536,-77.499 1.871,-1.587 4.564,-1.587 6.435,0 21.969,18.284 58.847,50.173 58.564,77.499 z m -131.925,-9.411 c -11.509,-14.939 -18.34,-33.647 -18.34,-53.972 0,-25.342 10.658,-48.217 27.723,-64.347 14.995,4.167 26.107,12.812 34.498,23.754 1.446,1.899 1.417,4.45 -0.085,6.265 -13.691,16.696 -46.658,58.706 -43.795,88.299 z m 70.158,-154.347 c 55.446,0 100.375,44.929 100.375,100.375 0,55.446 -44.929,100.403 -100.375,100.403 -55.446,0 -100.404,-44.958 -100.404,-100.403 0,-55.446 44.958,-100.375 100.404,-100.375 z"
       id="path35" />
  </g>
</svg>
