<?xml version="1.0" encoding="UTF-8" standalone="no"?>
<!-- Created with Inkscape (http://www.inkscape.org/) -->

<svg
   width="2150"
   height="2380"
   viewBox="0 0 2150 2380"
   version="1.1"
   id="svg1"
   inkscape:version="1.3 (0e150ed6c4, 2023-07-21)"
   sodipodi:docname="X360Controller_Buttons.svg"
   xmlns:inkscape="http://www.inkscape.org/namespaces/inkscape"
   xmlns:sodipodi="http://sodipodi.sourceforge.net/DTD/sodipodi-0.dtd"
   xmlns="http://www.w3.org/2000/svg"
   xmlns:svg="http://www.w3.org/2000/svg">
  <sodipodi:namedview
     id="namedview1"
     pagecolor="#ffffff"
     bordercolor="#666666"
     borderopacity="1.0"
     inkscape:showpageshadow="2"
     inkscape:pageopacity="0.0"
     inkscape:pagecheckerboard="0"
     inkscape:deskcolor="#d1d1d1"
     inkscape:document-units="px"
     inkscape:zoom="0.26124263"
     inkscape:cx="2091.9251"
     inkscape:cy="943.56731"
     inkscape:window-width="2560"
     inkscape:window-height="1369"
     inkscape:window-x="1912"
     inkscape:window-y="-8"
     inkscape:window-maximized="1"
     inkscape:current-layer="layer1" />
  <defs
     id="defs1">
    <pattern
       id="EMFhbasepattern"
       patternUnits="userSpaceOnUse"
       width="6"
       height="6"
       x="0"
       y="0" />
  </defs>
  <g
     inkscape:label="Layer 1"
     inkscape:groupmode="layer"
     id="layer1">
    <path
       style="fill:#ff0000;fill-opacity:1;fill-rule:evenodd;stroke:none;stroke-width:0.999997"
       d="M 0,2380 H 2150.0001 V 0 H 0 Z"
       id="path1" />
    <path
       style="fill:#6699ff;fill-opacity:1;fill-rule:evenodd;stroke:none;stroke-width:0.999997"
       d="m 1346.6307,1680.6636 c 19.5309,0 35.4332,-15.9307 35.4332,-35.4331 0,-19.5307 -15.9023,-35.4331 -35.4332,-35.4331 -19.5023,0 -35.4331,15.9024 -35.4331,35.4331 0,19.5024 15.9308,35.4331 35.4331,35.4331 z"
       id="path2" />
    <path
       style="fill:#6699ff;fill-opacity:1;fill-rule:evenodd;stroke:none;stroke-width:0.999997"
       d="m 1502.48,1359.0726 c 32.4852,0 58.9892,-26.5039 58.9892,-58.989 0,-32.485 -26.504,-58.989 -58.9892,-58.989 -32.5135,0 -59.0174,26.504 -59.0174,58.989 0,32.4851 26.5039,58.989 59.0174,58.989 z"
       id="path3" />
    <path
       style="fill:#6699ff;fill-opacity:1;fill-rule:evenodd;stroke:none;stroke-width:0.999997"
       d="m 1655.3529,1515.2335 c 32.5135,0 59.0175,-26.504 59.0175,-59.0174 0,-32.485 -26.504,-58.9891 -59.0175,-58.9891 -32.4851,0 -58.9891,26.5041 -58.9891,58.9891 0,32.5134 26.504,59.0174 58.9891,59.0174 z"
       id="path4" />
    <path
       style="fill:#6699ff;fill-opacity:1;fill-rule:evenodd;stroke:none;stroke-width:0.999997"
       d="m 1811.1739,1359.0726 c 32.5134,0 59.0174,-26.5039 59.0174,-58.989 0,-32.485 -26.504,-58.989 -59.0174,-58.989 -32.4852,0 -58.9892,26.504 -58.9892,58.989 0,32.4851 26.504,58.989 58.9892,58.989 z"
       id="path5" />
    <path
       style="fill:#6699ff;fill-opacity:1;fill-rule:evenodd;stroke:none;stroke-width:0.999997"
       d="m 1655.3529,1204.9528 c 32.5135,0 59.0175,-26.504 59.0175,-59.0174 0,-32.4851 -26.504,-58.9891 -59.0175,-58.9891 -32.4851,0 -58.9891,26.504 -58.9891,58.9891 0,32.5134 26.504,59.0174 58.9891,59.0174 z"
       id="path6" />
    <path
       style="fill:#6699ff;fill-opacity:1;fill-rule:evenodd;stroke:none;stroke-width:0.999997"
       d="m 661.63661,1680.6636 c 19.53075,0 35.43317,-15.9307 35.43317,-35.4331 0,-19.5307 -15.90242,-35.4331 -35.43317,-35.4331 -19.50243,0 -35.43318,15.9024 -35.43318,35.4331 0,19.5024 15.93075,35.4331 35.43318,35.4331 z"
       id="path7" />
    <path
       style="fill:#6699ff;fill-opacity:1;fill-rule:evenodd;stroke:none;stroke-width:0.999997"
       d="m 767.93614,1786.9346 c 19.53077,0 35.43315,-15.9024 35.43315,-35.4331 0,-19.5023 -15.90238,-35.4047 -35.43315,-35.4047 -19.50243,0 -35.43319,15.9024 -35.43319,35.4047 0,19.5307 15.93076,35.4331 35.43319,35.4331 z"
       id="path8" />
    <path
       style="fill:#6699ff;fill-opacity:1;fill-rule:evenodd;stroke:none;stroke-width:0.999997"
       d="m 874.23566,1680.6636 c 19.50242,0 35.43316,-15.9307 35.43316,-35.4331 0,-19.5307 -15.93074,-35.4331 -35.43316,-35.4331 -19.53076,0 -35.43322,15.9024 -35.43322,35.4331 0,19.5024 15.90246,35.4331 35.43322,35.4331 z"
       id="path9" />
    <path
       style="fill:#6699ff;fill-opacity:1;fill-rule:evenodd;stroke:none;stroke-width:0.999997"
       d="m 767.93614,1574.3643 c 19.53077,0 35.43315,-15.9307 35.43315,-35.4331 0,-19.5308 -15.90238,-35.4332 -35.43315,-35.4332 -19.50243,0 -35.43319,15.9024 -35.43319,35.4332 0,19.5024 15.93076,35.4331 35.43319,35.4331 z"
       id="path10" />
    <path
       style="fill:#6699ff;fill-opacity:1;fill-rule:evenodd;stroke:none;stroke-width:0.999997"
       d="m 767.93614,1680.6636 c 19.53077,0 35.43315,-15.9307 35.43315,-35.4331 0,-19.5307 -15.90238,-35.4331 -35.43315,-35.4331 -19.50243,0 -35.43319,15.9024 -35.43319,35.4331 0,19.5024 15.93076,35.4331 35.43319,35.4331 z"
       id="path11" />
    <path
       style="fill:#6699ff;fill-opacity:1;fill-rule:evenodd;stroke:none;stroke-width:0.999997"
       d="m 492.74791,1334.6096 c 19.53077,0 35.43318,-15.9024 35.43318,-35.4331 0,-19.5023 -15.90241,-35.4331 -35.43318,-35.4331 -19.50241,0 -35.43317,15.9308 -35.43317,35.4331 0,19.5307 15.93076,35.4331 35.43317,35.4331 z"
       id="path12" />
    <path
       style="fill:#6699ff;fill-opacity:1;fill-rule:evenodd;stroke:none;stroke-width:0.999997"
       d="m 1299.4054,1283.841 h -23.6126 c -16.2426,0 -29.5371,13.2663 -29.5371,29.5088 v 0 c 0,16.2425 13.2945,29.537 29.5371,29.537 h 23.6126 c 16.2426,0 29.5088,-13.2945 29.5088,-29.537 v 0 c 0,-16.2425 -13.2662,-29.5088 -29.5088,-29.5088 z"
       id="path13" />
    <path
       style="fill:#6699ff;fill-opacity:1;fill-rule:evenodd;stroke:none;stroke-width:0.999997"
       d="m 850.62302,1283.841 h 23.61264 c 16.24258,0 29.50876,13.2663 29.50876,29.5088 v 0 c 0,16.2425 -13.26618,29.537 -29.50876,29.537 h -23.61264 c -16.24256,0 -29.53712,-13.2945 -29.53712,-29.537 v 0 c 0,-16.2425 13.29456,-29.5088 29.53712,-29.5088 z"
       id="path14" />
    <path
       style="fill:#6699ff;fill-opacity:1;fill-rule:evenodd;stroke:none;stroke-width:0.999997"
       d="m 1075.0142,1413.3562 c 55.0773,0 99.9782,-44.9292 99.9782,-100.0064 0,-55.0773 -44.9009,-100.0065 -99.9782,-100.0065 -55.0774,0 -100.00657,44.9292 -100.00657,100.0065 0,55.0772 44.92917,100.0064 100.00657,100.0064 z"
       id="path15" />
    <path
       style="fill:#6699ff;fill-opacity:1;fill-rule:evenodd;stroke:none;stroke-width:0.999997"
       d="m 1677.3214,590.68425 c 19.5309,0 35.4332,-15.90239 35.4332,-35.43312 0,-19.50239 -15.9023,-35.43313 -35.4332,-35.43313 -19.5023,0 -35.433,15.93074 -35.433,35.43313 0,19.53073 15.9307,35.43312 35.433,35.43312 z"
       id="path16" />
    <path
       style="fill:#6699ff;fill-opacity:1;fill-rule:evenodd;stroke:none;stroke-width:0.999997"
       d="m 472.67856,590.68425 c 19.53077,0 35.43318,-15.90239 35.43318,-35.43312 0,-19.50239 -15.90241,-35.43313 -35.43318,-35.43313 -19.50242,0 -35.43318,15.93074 -35.43318,35.43313 0,19.53073 15.93076,35.43312 35.43318,35.43312 z"
       id="path17" />
    <path
       style="fill:#353535;fill-opacity:1;fill-rule:evenodd;stroke:none;stroke-width:0.999997"
       d="m 845.29384,1308.8427 23.72602,-11.9056 c 1.61577,-0.7937 3.37329,-0.737 4.90398,0.2268 1.53069,0.9354 2.40945,2.4661 2.40945,4.2804 v 23.811 c 0,1.8142 -0.87876,3.3449 -2.40945,4.3087 -1.53069,0.9354 -3.28821,1.0205 -4.90398,0.1984 l -23.72602,-11.9055 c -1.75751,-0.8788 -2.778,-2.5512 -2.778,-4.5071 0,-1.9559 1.02049,-3.6284 2.778,-4.5071 z"
       id="path18" />
    <path
       style="fill:#353535;fill-opacity:1;fill-rule:evenodd;stroke:none;stroke-width:0.999997"
       d="m 1304.7062,1308.8427 -23.726,-11.9056 c -1.6158,-0.7937 -3.3733,-0.737 -4.904,0.2268 -1.5306,0.9354 -2.3812,2.4661 -2.3812,4.2804 v 23.811 c 0,1.8142 0.8506,3.3449 2.3812,4.3087 1.5307,0.9354 3.2882,1.0205 4.904,0.1984 l 23.726,-11.9055 c 1.7575,-0.8788 2.7779,-2.5512 2.7779,-4.5071 0,-1.9559 -1.0204,-3.6284 -2.7779,-4.5071 z"
       id="path19" />
    <path
       style="fill:#353535;fill-opacity:1;fill-rule:nonzero;stroke:none;stroke-width:0.999997"
       d="m 1510.7005,1299.2899 25.8521,34.7245 c 0.9354,1.2472 0.6519,3.0047 -0.5953,3.9402 -0.5102,0.3684 -1.1055,0.5669 -1.6724,0.5669 h -9.6946 c -1.0204,0 -1.8424,-0.5669 -2.4094,-1.3323 l -19.7009,-26.9009 -19.7292,27.071 c -0.5386,0.737 -1.3889,1.1622 -2.2677,1.1622 h -9.8079 c -1.5591,0 -2.8346,-1.2756 -2.8346,-2.8347 0,-0.7087 0.3118,-1.3323 0.7087,-1.8709 l 25.7103,-34.6394 -24.5481,-32.9953 c -0.9356,-1.2756 -0.6804,-3.0331 0.5952,-3.9685 0.4819,-0.3685 1.0771,-0.5669 1.6725,-0.5669 h 9.8078 c 0.9922,0 1.8142,0.5385 2.3811,1.3039 l 18.3969,25.3134 18.5103,-25.4268 c 0.5669,-0.7654 1.4174,-1.1905 2.2961,-1.1905 h 9.6945 c 1.5875,0 2.8347,1.2756 2.8347,2.8346 0,0.7087 -0.2835,1.3323 -0.6803,1.8709 z"
       id="path20" />
    <path
       style="fill:#353535;fill-opacity:1;fill-rule:nonzero;stroke:none;stroke-width:0.999997"
       d="m 1689.7089,1117.0503 -27.4111,41.5276 v 27.978 c 0,1.559 -1.2755,2.8346 -2.8347,2.8346 h -8.192 c -1.5875,0 -2.8347,-1.2756 -2.8347,-2.8346 v -28.063 l -27.5245,-41.5843 c -0.8788,-1.3039 -0.5103,-3.0614 0.7937,-3.9118 0.4819,-0.3402 1.0205,-0.482 1.559,-0.482 h 9.6095 c 1.0488,0 1.9276,0.6237 2.4662,1.4458 l 20.1259,31.1811 20.2111,-31.3229 c 0.5387,-0.8504 1.4457,-1.304 2.3812,-1.304 h 9.4111 c 1.559,0 2.8346,1.2756 2.8346,2.8347 0,0.652 -0.255,1.2189 -0.5953,1.7008 z"
       id="path21" />
    <path
       style="fill:#353535;fill-opacity:1;fill-rule:nonzero;stroke:none;stroke-width:0.999997"
       d="m 1679.1923,1487.7374 -7.0016,-16.3842 h -33.4772 l -7.1433,16.5826 c -0.4535,1.0772 -1.5024,1.7292 -2.6079,1.7292 h -8.5039 c -1.5591,0 -2.8347,-1.2756 -2.8347,-2.8347 0,-0.4535 0.1418,-0.8788 0.3118,-1.2756 l 31.2378,-71.0646 c 0.4536,-1.0772 1.5024,-1.7008 2.5796,-1.7008 h 7.2 c 1.2189,0 2.211,0.7937 2.6646,1.8425 l 31.2379,71.0646 c 0.6237,1.4174 -0.029,3.0899 -1.4457,3.7135 -0.3684,0.17 -0.7654,0.2551 -1.1339,0.2551 h -8.4189 c -1.2188,0 -2.211,-0.8221 -2.6646,-1.9276 z m -35.1214,-28.8567 h 22.7907 l -11.3954,-26.589 z"
       id="path22" />
    <path
       style="fill:#353535;fill-opacity:1;fill-rule:nonzero;stroke:none;stroke-width:0.999997"
       d="m 1835.1266,1298.7797 c 2.0693,1.2473 3.8269,2.8346 5.3008,4.7338 2.6647,3.4866 3.9686,7.7387 3.9686,12.7843 0,3.4866 -0.567,6.6047 -1.7575,9.3544 -1.2189,2.8063 -3.0614,5.1874 -5.4709,7.1716 -2.381,1.9275 -5.1874,3.3733 -8.5039,4.3087 -3.1748,0.9354 -6.7748,1.389 -10.8,1.389 h -29.5939 c -1.559,0 -2.8346,-1.2756 -2.8346,-2.8347 v -71.2064 c 0,-1.559 1.2756,-2.8346 2.8346,-2.8346 h 28.6018 c 3.8834,0 7.37,0.4535 10.4597,1.3322 3.2033,0.9072 5.9528,2.2961 8.2773,4.167 2.381,1.8992 4.1669,4.1953 5.3575,6.9166 1.1621,2.6645 1.7574,5.6692 1.7574,9.0141 0,4.3937 -1.1622,8.2205 -3.4866,11.5087 -1.1622,1.6157 -2.5228,3.0047 -4.1103,4.1953 z m -35.915,-5.5276 h 16.356 c 4.7055,0 8.1637,-0.8788 10.3748,-2.5795 2.296,-1.8142 3.0047,-4.3654 3.0047,-7.2001 0,-6.2362 -4.4503,-9.3543 -13.3795,-9.3543 h -16.356 z m 17.9717,32.7969 c 4.9323,0 8.4757,-0.8504 10.5733,-2.5228 0.9354,-0.7654 1.6441,-1.7008 2.126,-2.8347 0.5102,-1.2472 0.7653,-2.7779 0.7653,-4.6204 0,-3.4584 -1.0204,-5.9811 -3.0331,-7.5969 -2.1827,-1.7858 -5.6693,-2.6646 -10.4315,-2.6646 h -17.9717 v 20.2394 z"
       id="path23" />
    <path
       style="fill:#353535;fill-opacity:1;fill-rule:evenodd;stroke:none;stroke-width:0.999997"
       d="m 1075.0142,1224.852 c 17.1213,0 33.0804,4.8756 46.6301,13.2662 -17.3765,-0.4819 -33.4207,6.6898 -44.1073,12.926 -1.6158,0.9354 -3.4582,0.9354 -5.0739,0 -10.6867,-6.2362 -26.7309,-13.4079 -44.1073,-12.926 13.5496,-8.3906 29.5371,-13.2662 46.6584,-13.2662 z m 60.7466,24.1513 c 17.093,16.1291 27.7513,39.0047 27.7513,64.3465 0,20.3244 -6.8599,39.0331 -18.3685,53.9717 2.8912,-29.5937 -30.0757,-71.6032 -43.7671,-88.2993 -1.5024,-1.8142 -1.5591,-4.3654 -0.1134,-6.2646 8.3906,-10.9418 19.5025,-19.5875 34.4977,-23.7543 z m 1.0205,127.7292 c -15.9592,15.5339 -37.7576,25.1151 -61.7671,25.1151 -24.0379,0 -45.8364,-9.5812 -61.7672,-25.1151 -0.3118,-27.3259 36.5672,-59.2158 58.5357,-77.4993 1.8709,-1.5874 4.5638,-1.5874 6.4347,0 21.9685,18.2835 58.8474,50.1734 58.5639,77.4993 z m -131.9248,-9.411 c -11.50867,-14.9386 -18.34019,-33.6473 -18.34019,-53.9717 0,-25.3418 10.65829,-48.2174 27.72279,-64.3465 14.9954,4.1668 26.1073,12.8125 34.4979,23.7543 1.4456,1.8992 1.4172,4.4504 -0.085,6.2646 -13.6914,16.6961 -46.6585,58.7056 -43.7955,88.2993 z m 70.1577,-154.3466 c 55.4459,0 100.3751,44.9292 100.3751,100.3749 0,55.4457 -44.9292,100.4032 -100.3751,100.4032 -55.4458,0 -100.40347,-44.9575 -100.40347,-100.4032 0,-55.4457 44.95767,-100.3749 100.40347,-100.3749 z"
       id="path24" />
    <path
       style="fill:#6699ff;fill-opacity:1;fill-rule:evenodd;stroke:none;stroke-width:0.999997"
       d="m 499.83455,1112.4299 23.83944,23.8677 c 2.94804,2.9197 3.77009,7.0866 2.18268,10.8851 -1.58741,3.8267 -5.10237,6.1794 -9.24097,6.1794 h -47.70723 c -4.13859,0 -7.65356,-2.3527 -9.24096,-6.1794 -1.58742,-3.7985 -0.76536,-7.9654 2.15433,-10.8851 l 23.86779,-23.8677 c 3.88347,-3.8836 10.2331,-3.8836 14.14492,0 z"
       id="path25" />
    <path
       style="fill:#6699ff;fill-opacity:1;fill-rule:evenodd;stroke:none;stroke-width:0.999997"
       d="m 499.83455,1034.4203 47.84896,47.8772 c 2.91969,2.9197 3.74174,7.0867 2.18268,10.885 -1.5874,3.8268 -5.13072,6.1796 -9.24097,6.1796 h -95.72627 c -4.13859,0 -7.65357,-2.3528 -9.24097,-6.1796 -1.5874,-3.7983 -0.737,-7.9653 2.18269,-10.885 l 47.84896,-47.8772 c 3.88347,-3.8835 10.2331,-3.8835 14.14492,0 z"
       id="path26" />
    <path
       style="fill:#6699ff;fill-opacity:1;fill-rule:evenodd;stroke:none;stroke-width:0.999997"
       d="m 679.49492,1306.2632 -23.83944,23.8394 c -2.91969,2.9197 -7.08663,3.77 -10.91342,2.1826 -3.79844,-1.5873 -6.17955,-5.1023 -6.17955,-9.241 v -47.7354 c 0,-4.1103 2.38111,-7.6536 6.17955,-9.2126 3.82679,-1.5875 7.99373,-0.7654 10.91342,2.1543 l 23.83944,23.8677 c 3.91182,3.8835 3.91182,10.2331 0,14.145 z"
       id="path27" />
    <path
       style="fill:#6699ff;fill-opacity:1;fill-rule:evenodd;stroke:none;stroke-width:0.999997"
       d="m 757.5046,1306.2632 -47.84896,47.8489 c -2.91969,2.9196 -7.08664,3.7417 -10.91342,2.1542 -3.79843,-1.559 -6.17954,-5.1023 -6.17954,-9.2409 v -95.6977 c 0,-4.1387 2.38111,-7.6536 6.17954,-9.241 3.82678,-1.5874 7.99373,-0.7654 10.91342,2.1543 l 47.84896,47.8772 c 3.88349,3.8835 3.88349,10.2331 0,14.145 z"
       id="path28" />
    <path
       style="fill:#6699ff;fill-opacity:1;fill-rule:evenodd;stroke:none;stroke-width:0.999997"
       d="m 499.83455,1485.9232 23.83944,-23.8677 c 2.94804,-2.9197 3.77009,-7.0583 2.18268,-10.8851 -1.58741,-3.8267 -5.10237,-6.1795 -9.24097,-6.1795 h -47.70723 c -4.13859,0 -7.65356,2.3528 -9.24096,6.1795 -1.58742,3.8268 -0.76536,7.9654 2.15433,10.8851 l 23.86779,23.8677 c 3.88347,3.9119 10.2331,3.9119 14.14492,0 z"
       id="path29" />
    <path
       style="fill:#6699ff;fill-opacity:1;fill-rule:evenodd;stroke:none;stroke-width:0.999997"
       d="m 306.00091,1306.2632 23.86778,23.8394 c 2.91969,2.9197 7.08664,3.77 10.88508,2.1826 3.82678,-1.5873 6.17953,-5.1023 6.17953,-9.241 v -47.7354 c 0,-4.1103 -2.35275,-7.6536 -6.17953,-9.2126 -3.79844,-1.5875 -7.96539,-0.7654 -10.88508,2.1543 l -23.86778,23.8677 c -3.88348,3.8835 -3.88348,10.2331 0,14.145 z"
       id="path30" />
    <path
       style="fill:#6699ff;fill-opacity:1;fill-rule:evenodd;stroke:none;stroke-width:0.999997"
       d="m 1353.7174,1458.4839 23.8395,23.8393 c 2.9196,2.9197 3.77,7.0867 2.1826,10.9135 -1.5875,3.7983 -5.1024,6.1794 -9.241,6.1794 h -47.7072 c -4.1386,0 -7.6819,-2.3811 -9.241,-6.1794 -1.5874,-3.8268 -0.7653,-7.9938 2.1544,-10.9135 l 23.8678,-23.8393 c 3.8834,-3.9119 10.233,-3.9119 14.1449,0 z"
       id="path31" />
    <path
       style="fill:#6699ff;fill-opacity:1;fill-rule:evenodd;stroke:none;stroke-width:0.999997"
       d="m 1353.7174,1380.4743 47.849,47.8489 c 2.9196,2.9197 3.7417,7.0866 2.1826,10.9133 -1.5874,3.7985 -5.1307,6.1796 -9.2409,6.1796 h -95.7264 c -4.1385,0 -7.6535,-2.3811 -9.2409,-6.1796 -1.5875,-3.8267 -0.737,-7.9936 2.1827,-10.9133 l 47.849,-47.8489 c 3.8834,-3.8835 10.233,-3.8835 14.1449,0 z"
       id="path32" />
    <path
       style="fill:#6699ff;fill-opacity:1;fill-rule:evenodd;stroke:none;stroke-width:0.999997"
       d="m 1533.3777,1652.2888 -23.8394,23.8678 c -2.9196,2.9197 -7.0866,3.7417 -10.9134,2.1543 -3.7984,-1.559 -6.1796,-5.1024 -6.1796,-9.241 v -47.7071 c 0,-4.1386 2.3812,-7.6536 6.1796,-9.241 3.8268,-1.5874 7.9938,-0.737 10.9134,2.1827 l 23.8394,23.8394 c 3.9119,3.9118 3.9119,10.2615 0,14.1449 z"
       id="path33" />
    <path
       style="fill:#6699ff;fill-opacity:1;fill-rule:evenodd;stroke:none;stroke-width:0.999997"
       d="m 1611.3874,1652.2888 -47.849,47.8489 c -2.9196,2.9197 -7.0866,3.7701 -10.9134,2.1826 -3.7983,-1.5873 -6.1795,-5.1023 -6.1795,-9.2409 v -95.7261 c 0,-4.1103 2.3812,-7.6535 6.1795,-9.241 3.8268,-1.559 7.9938,-0.737 10.9134,2.1827 l 47.849,47.8489 c 3.8835,3.9118 3.8835,10.2615 0,14.1449 z"
       id="path34" />
    <path
       style="fill:#6699ff;fill-opacity:1;fill-rule:evenodd;stroke:none;stroke-width:0.999997"
       d="m 1353.7174,1831.9772 23.8395,-23.8677 c 2.9196,-2.9197 3.77,-7.0866 2.1826,-10.8851 -1.5875,-3.8267 -5.1024,-6.1795 -9.241,-6.1795 h -47.7072 c -4.1386,0 -7.6819,2.3528 -9.241,6.1795 -1.5874,3.7985 -0.7653,7.9654 2.1544,10.8851 l 23.8678,23.8677 c 3.8834,3.8835 10.233,3.8835 14.1449,0 z"
       id="path35" />
    <path
       style="fill:#6699ff;fill-opacity:1;fill-rule:evenodd;stroke:none;stroke-width:0.999997"
       d="m 1159.8838,1652.2888 23.8677,23.8678 c 2.9197,2.9197 7.0867,3.7417 10.8851,2.1543 3.8267,-1.559 6.1796,-5.1024 6.1796,-9.241 v -47.7071 c 0,-4.1386 -2.3529,-7.6536 -6.1796,-9.241 -3.7984,-1.5874 -7.9654,-0.737 -10.8851,2.1827 l -23.8677,23.8394 c -3.8836,3.9118 -3.8836,10.2615 0,14.1449 z"
       id="path36" />
    <path
       style="fill:#6699ff;fill-opacity:1;fill-rule:evenodd;stroke:none;stroke-width:0.999997"
       d="m 532.88661,14.371671 47.87732,47.87723 c 2.91968,2.919686 3.74173,7.058273 2.15433,10.885052 -1.5874,3.826779 -5.10239,6.179532 -9.24098,6.179532 h -95.69791 c -4.1386,0 -7.68192,-2.352753 -9.24098,-6.179532 -1.5874,-3.826779 -0.76535,-7.965366 2.15434,-10.885052 l 47.8773,-47.87723 c 3.88349,-3.883469 10.23311,-3.883469 14.11658,0 z"
       id="path37" />
    <path
       style="fill:#6699ff;fill-opacity:1;fill-rule:evenodd;stroke:none;stroke-width:0.999997"
       d="m 1631.2583,14.371671 47.8489,47.87723 c 2.9198,2.919686 3.7418,7.058273 2.1828,10.885052 -1.5874,3.826779 -5.1307,6.179532 -9.2409,6.179532 h -95.7263 c -4.1386,0 -7.6537,-2.352753 -9.2409,-6.179532 -1.5875,-3.826779 -0.7655,-7.965366 2.1825,-10.885052 l 47.849,-47.87723 c 3.8835,-3.883469 10.2332,-3.883469 14.1449,0 z"
       id="path38" />
  </g>
</svg>
