<?xml version="1.0" encoding="UTF-8"?>
<!DOCTYPE svg PUBLIC "-//W3C//DTD SVG 1.1//EN" "http://www.w3.org/Graphics/SVG/1.1/DTD/svg11.dtd">
<svg version="1.1" id="Layer_1" xmlns="http://www.w3.org/2000/svg" xmlns:xlink="http://www.w3.org/1999/xlink" x="0px" y="0px" width="24px" height="24px" viewBox="0 0 24 24" enable-background="new 0 0 24 24" xml:space="preserve">
  <g id="icon">
    <path d="M13,2.9v7.2c0,0.495,0.405,0.9,0.9,0.9h7.2c0.495,0,0.9,-0.405,0.9,-0.9V2.9c0,-0.495,-0.405,-0.9,-0.9,-0.9h-7.2C13.405,2,13,2.405,13,2.9zM2,13.9v7.2c0,0.495,0.405,0.9,0.9,0.9h7.2c0.495,0,0.9,-0.405,0.9,-0.9v-7.2c0,-0.495,-0.405,-0.9,-0.9,-0.9H2.9C2.405,13,2,13.405,2,13.9zM2.9,2h7.2c0.495,0,0.9,0.405,0.9,0.9v7.2c0,0.495,-0.405,0.9,-0.9,0.9H2.9c-0.495,0,-0.9,-0.405,-0.9,-0.9V2.9C2,2.405,2.405,2,2.9,2zM13,13.9v7.2c0,0.495,0.405,0.9,0.9,0.9h7.2c0.495,0,0.9,-0.405,0.9,-0.9v-7.2c0,-0.495,-0.405,-0.9,-0.9,-0.9h-7.2C13.405,13,13,13.405,13,13.9z" fill="#E6E9EE"/>
    <path d="M21.1,2h-1.2818l-2.8364,9H21.1c0.495,0,0.9,-0.405,0.9,-0.9V2.9C22,2.405,21.595,2,21.1,2zM10.1,13H8.8182l-2.8364,9H10.1c0.495,0,0.9,-0.405,0.9,-0.9v-7.2C11,13.405,10.595,13,10.1,13zM11,2.9v7.2c0,0.495,-0.405,0.9,-0.9,0.9H5.9818l2.8364,-9H10.1C10.595,2,11,2.405,11,2.9zM21.1,13h-1.2818l-2.8364,9H21.1c0.495,0,0.9,-0.405,0.9,-0.9v-7.2C22,13.405,21.595,13,21.1,13z" fill="#CCD0D9" opacity="0.5"/>
  </g>
</svg>
