<svg version="1.1"
    xmlns="http://www.w3.org/2000/svg"
    xmlns:xlink="http://www.w3.org/1999/xlink" width="512" height="512" viewBox="0 0 512 512">
    <title>document gear icon</title>
    <desc>document gear icon from the IconExperience.com G-Collection. Copyright by INCORS GmbH (www.incors.com).</desc>
    <defs>
        <linearGradient x1="64" y1="0" x2="359.822" y2="512.00059" gradientUnits="userSpaceOnUse" id="color-1">
            <stop offset="0" stop-color="#f3fafe"/>
            <stop offset="1" stop-color="#cae9fb"/>
        </linearGradient>
        <linearGradient x1="112.12783" y1="179.40525" x2="248.65483" y2="427.40725" gradientUnits="userSpaceOnUse" id="color-2">
            <stop offset="0" stop-color="#91a0af"/>
            <stop offset="1" stop-color="#717f8f"/>
        </linearGradient>
        <linearGradient x1="169" y1="230" x2="286.5585" y2="405.6335" gradientUnits="userSpaceOnUse" id="color-3">
            <stop offset="0" stop-color="#d4dce5"/>
            <stop offset="1" stop-color="#afbbc7"/>
        </linearGradient>
        <linearGradient x1="310.5" y1="9.5" x2="396.703" y2="127.03825" gradientUnits="userSpaceOnUse" id="color-4">
            <stop offset="0" stop-color="#c5e7fb"/>
            <stop offset="1" stop-color="#94d3f8"/>
        </linearGradient>
    </defs>
    <g fill="none" fill-rule="none" stroke="none" stroke-width="1" stroke-linecap="butt" stroke-linejoin="miter" stroke-miterlimit="10" stroke-dasharray="" stroke-dashoffset="0" font-family="none" font-weight="none" font-size="none" text-anchor="none" style="mix-blend-mode: normal">
        <path d="M288,0l-216,0c-4.5,0 -8,3.5 -8,8l0,496c0,4.5 3.5,8 8,8l368,0c4.5,0 8,-3.5 8,-8l0,-344c0,-9 -3.5,-17 -9.5,-22.5l-128,-128c-5.5,-6 -13.5,-9.5 -22.5,-9.5z" id="curve3" fill="url(#color-1)" fill-rule="evenodd"/>
        <path d="M258,217c2,-0.5 3.5,-2 4.5,-3.5l25.5,-31.5c1,-1.5 2.5,-2 4.5,-2.5c8,-0.5 16,1 23,4c7,3.5 13,8 18.5,14.5c1,1.5 1.5,3 1.5,5l-6,39.5c-0.5,2 -0.5,4 0,6c2.5,2.5 4.5,5 6.5,7.5c2,1 4,1.5 6,1.5l40,0c2,0 3.5,1 5,2c5.5,6.5 9,13.5 11,20.5c2,7.5 2,15.5 0.5,23.5c-0.5,2 -1.5,3.5 -3,4l-35,20c-1.5,1.5 -3,2.5 -4.5,4.5c0,3 -1,6.5 -1.5,9.5c0.5,2 1,3.5 2.5,5.5l25,31.5c1,1.5 1.5,3 1,5c-1,8 -4.5,15.5 -9,21.5c-4.5,6 -10.5,11 -18,15c-1.5,0.5 -3.5,0.5 -5,0l-37.5,-15c-2,-0.5 -4,-1 -6,-0.5c-2.5,1.5 -5.5,3 -8.5,4.5c-1.5,1.5 -2,3.5 -2.5,5.5l-9,39c-0.5,2 -1.5,3 -3.5,4c-7,4 -14.5,6 -22.5,6.5c-7.5,0 -15,-1.5 -22.5,-5c-2,-0.5 -3,-2 -3.5,-4l-12,-38c-0.5,-2 -1.5,-4 -3,-5.5c-3,-1 -6,-2.5 -9,-4c-2,0 -3.5,0.5 -5.5,1.5l-36.5,17.5c-1.5,0.5 -3.5,0.5 -5,0c-7.5,-3 -14,-8 -19,-13.5c-5,-6 -8.5,-13 -10.5,-21c-0.5,-1.5 0,-3.5 1,-5l22.5,-33c1,-2 2,-4 2,-5.5c-1,-3.5 -1.5,-6.5 -2.5,-10c-1,-1.5 -2.5,-2.5 -4.5,-3.5l-36,-17.5c-2,-1 -3,-2 -3.5,-4c-2,-8 -2.5,-16 -1,-23.5c1.5,-7.5 4.5,-14.5 9.5,-21c1,-1.5 3,-2.5 4.5,-2.5l40.5,-3c2,0 4,-0.5 5.5,-1.5c2,-3 3.5,-5.5 6,-8c0.5,-2 0.5,-4 0,-6l-9,-39.5c-0.5,-1.5 0,-3.5 1,-5c5,-6.5 11,-12 17.5,-15.5c7,-3.5 14.5,-5.5 22.5,-5.5c2,0 3.5,0.5 5,2l27,29.5c1.5,1.5 3.5,3 5,3.5c3.5,-0.5 6.5,-0.5 10,-0.5z M256.5,347c16.5,0 29.5,-13 29.5,-29.5c0,-16 -13,-29 -29.5,-29c-16,0 -29,13 -29,29c0,16.5 13,29.5 29,29.5z" id="curve2" fill="url(#color-2)" fill-rule="nonzero"/>
        <path d="M256.5,274c-24,0 -44,19.5 -44,43.5c0,24.5 20,44 44,44c24.5,0 44,-19.5 44,-44c0,-24 -19.5,-43.5 -44,-43.5z M256.5,230c48.5,0 88,39 88,87.5c0,48.5 -39.5,88 -88,88c-48.5,0 -87.5,-39.5 -87.5,-88c0,-48.5 39,-87.5 87.5,-87.5z" id="curve1" fill="url(#color-3)" fill-rule="nonzero"/>
        <path d="M438.5,137.5c-5.5,-6 -13.5,-9.5 -22.5,-9.5l-88,0c-4.5,0 -8,-3.5 -8,-8l0,-88c0,-8.5 -3.5,-16.5 -9.5,-22.5z" id="curve0" fill="url(#color-4)" fill-rule="evenodd"/>
    </g>
</svg>