<svg version="1.1"
    xmlns="http://www.w3.org/2000/svg"
    xmlns:xlink="http://www.w3.org/1999/xlink" width="512" height="512" viewBox="0 0 512 512">
    <title>radio button group icon</title>
    <desc>radio button group icon from the IconExperience.com G-Collection. Copyright by INCORS GmbH (www.incors.com).</desc>
    <defs>
        <linearGradient x1="0" y1="48" x2="141.4157" y2="232.2725" gradientUnits="userSpaceOnUse" id="color-1">
            <stop offset="0" stop-color="#4eb6f2"/>
            <stop offset="1" stop-color="#139eee"/>
        </linearGradient>
        <linearGradient x1="0" y1="272" x2="141.4157" y2="456.273" gradientUnits="userSpaceOnUse" id="color-2">
            <stop offset="0" stop-color="#4eb6f2"/>
            <stop offset="1" stop-color="#139eee"/>
        </linearGradient>
        <linearGradient x1="32" y1="304" x2="118.44015" y2="416.406" gradientUnits="userSpaceOnUse" id="color-3">
            <stop offset="0" stop-color="#ffffff"/>
            <stop offset="1" stop-color="#dcf1fd"/>
        </linearGradient>
        <linearGradient x1="32" y1="80" x2="118.44015" y2="192.4065" gradientUnits="userSpaceOnUse" id="color-4">
            <stop offset="0" stop-color="#ffffff"/>
            <stop offset="1" stop-color="#dcf1fd"/>
        </linearGradient>
        <linearGradient x1="48" y1="96" x2="121.67295" y2="192" gradientUnits="userSpaceOnUse" id="color-5">
            <stop offset="0" stop-color="#40b0f1"/>
            <stop offset="1" stop-color="#23a4ef"/>
        </linearGradient>
    </defs>
    <g fill="none" fill-rule="evenodd" stroke="none" stroke-width="1" stroke-linecap="butt" stroke-linejoin="miter" stroke-miterlimit="10" stroke-dasharray="" stroke-dashoffset="0" font-family="none" font-weight="none" font-size="none" text-anchor="none" style="mix-blend-mode: normal">
        <path d="M96,48c53,0 96,43 96,96c0,53 -43,96 -96,96c-53,0 -96,-43 -96,-96c0,-53 43,-96 96,-96z" id="curve6" fill="url(#color-1)"/>
        <path d="M96,272c53,0 96,43 96,96c0,53 -43,96 -96,96c-53,0 -96,-43 -96,-96c0,-53 43,-96 96,-96z" id="curve5" fill="url(#color-2)"/>
        <path d="M96,304c35.5,0 64,28.5 64,64c0,35.5 -28.5,64 -64,64c-35.5,0 -64,-28.5 -64,-64c0,-35.5 28.5,-64 64,-64z" id="curve4" fill="url(#color-3)"/>
        <path d="M96,80c35.5,0 64,28.5 64,64c0,35.5 -28.5,64 -64,64c-35.5,0 -64,-28.5 -64,-64c0,-35.5 28.5,-64 64,-64z" id="curve3" fill="url(#color-4)"/>
        <path d="M96,96c26.5,0 48,21.5 48,48c0,26.5 -21.5,48 -48,48c-26.5,0 -48,-21.5 -48,-48c0,-26.5 21.5,-48 48,-48z" id="curve2" fill="url(#color-5)"/>
        <path d="M224,96l288,0l0,96l-288,0z" id="curve1" fill="#91a0af"/>
        <path d="M224,320l288,0l0,96l-288,0z" id="curve0" fill="#91a0af"/>
    </g>
</svg>