<svg version="1.1"
    xmlns="http://www.w3.org/2000/svg"
    xmlns:xlink="http://www.w3.org/1999/xlink" width="512" height="512" viewBox="0 0 512 512">
    <title>log out icon</title>
    <desc>log out icon from the IconExperience.com G-Collection. Copyright by INCORS GmbH (www.incors.com).</desc>
    <defs>
        <linearGradient x1="0" y1="224" x2="29.54116" y2="447.9995" gradientUnits="userSpaceOnUse" id="color-1">
            <stop offset="0" stop-color="#87cef6"/>
            <stop offset="1" stop-color="#55b9f3"/>
        </linearGradient>
        <linearGradient x1="219.5" y1="320" x2="219.6205" y2="304" gradientUnits="userSpaceOnUse" id="color-2">
            <stop offset="0" stop-color="#37adf0"/>
            <stop offset="1" stop-color="#31abf0"/>
        </linearGradient>
        <linearGradient x1="491.5" y1="384" x2="490.7905" y2="336" gradientUnits="userSpaceOnUse" id="color-3">
            <stop offset="0" stop-color="#40b1f1"/>
            <stop offset="1" stop-color="#32abf0"/>
        </linearGradient>
        <linearGradient x1="263" y1="16" x2="497.078" y2="237.2389" gradientUnits="userSpaceOnUse" id="color-4">
            <stop offset="0" stop-color="#ef5c51"/>
            <stop offset="1" stop-color="#c43126"/>
        </linearGradient>
    </defs>
    <g fill="none" fill-rule="none" stroke="none" stroke-width="1" stroke-linecap="butt" stroke-linejoin="miter" stroke-miterlimit="10" stroke-dasharray="" stroke-dashoffset="0" font-family="none" font-weight="none" font-size="none" text-anchor="none" style="mix-blend-mode: normal">
        <path d="M455,288l-242,0c-18,-38 -56.5,-64 -101,-64c-62,0 -112,50 -112,112c0,62 50,112 112,112c44.5,0 83,-26 101,-64l39,0l24,-24.5c5.5,-5 14,-5 19.5,0l24,24.5l0,0l24.5,-24.5c5,-5 13.5,-5 19,0l24.5,24.5l0,0l24,-24.5c5.5,-5 14,-5 19.5,0l24,24.5c5,0 9,-2.5 11.5,-6.5l29,-49c3.5,-5.5 3.5,-13 -2,-16.5l-29,-20c-3,-2 -5.5,-4 -9.5,-4z M64,304c17.5,0 32,14.5 32,32c0,17.5 -14.5,32 -32,32c-17.5,0 -32,-14.5 -32,-32c0,-17.5 14.5,-32 32,-32z" id="curve3" fill="url(#color-1)" fill-rule="evenodd"/>
        <path d="M448,304l-228.5,0c1.5,5 2.5,10.5 3.5,16l241,0z" id="curve2" fill="url(#color-2)" fill-rule="evenodd"/>
        <path d="M213,384l39,0l24,-24.5c5.5,-5 14,-5 19.5,0l24,24.5l0,0l24.5,-24.5c5,-5 13.5,-5 19,0l24.5,24.5l0,0l24,-24.5c5.5,-5 14,-5 19.5,0l24,24.5c5,0 9,-2.5 11.5,-6.5l25,-41.5l-267.5,0c0,17 -4,33.5 -11,48z" id="curve1" fill="url(#color-3)" fill-rule="evenodd"/>
        <path d="M466.5,16l45.5,45.5l-79,79l79,79l-45.5,45.5l-79,-79l-79,79l-45.5,-45.5l79.5,-79l-79.5,-79l45.5,-45.5l79,79z" id="curve0" fill="url(#color-4)" fill-rule="nonzero"/>
    </g>
</svg>